<?xml version='1.0' encoding='UTF-8' standalone='no'?>
<!-- Generator: Adobe Illustrator 18.0.0, SVG Export Plug-In . SVG Version: 6.00 Build 0)  -->
<svg xmlns="http://www.w3.org/2000/svg" x="0px" y="0px" height="85.5" viewBox="0 0 66.6905605 165.9097799" width="36" xmlns:xml="http://www.w3.org/XML/1998/namespace" enable-background="new 0 0 195.6 134.4"  gorn="0" version="1.1" xml:space="preserve" id="_x30_">
    <metadata  id="metadata1043">
        <rdf:RDF xmlns:rdf="http://www.w3.org/1999/02/22-rdf-syntax-ns#">
            <cc:Work rdf:about="" xmlns:cc="http://creativecommons.org/ns#" xmlns:rdf="http://www.w3.org/1999/02/22-rdf-syntax-ns#">
                <dc:format xmlns:dc="http://purl.org/dc/elements/1.1/">image/svg+xml</dc:format>
                <dc:type rdf:resource="http://purl.org/dc/dcmitype/StillImage" xmlns:dc="http://purl.org/dc/elements/1.1/" xmlns:rdf="http://www.w3.org/1999/02/22-rdf-syntax-ns#"/>
                <dc:title xmlns:dc="http://purl.org/dc/elements/1.1/"/>
            </cc:Work>
        </rdf:RDF>
    </metadata>
    <defs  id="defs1041"/>
    <desc  id="0.0">
        <referenceFile  id="0.0.0">Arduino_DUE_V02b_breadboard.svg</referenceFile>
    </desc>
    <desc  id="0.1">Fritzing breadboard generated by brd2svg</desc>
    <path fill-opacity="1"  gorn="0.4" d="m -1.583094466,-4.000000775e-8 0,165.90977993999999284 69.856749436,0 0,-165.90977993999999284 z" stroke="none" fill="#1f7a34" id="rect4796"/>
    <g transform="translate(60.05281319,160.419428)" >
        <g >
            <g  gorn="0.5.0.0" id="g13">
                <g  gorn="0.5.0.0.0" id="g15">
                    <g  gorn="0.5.0.0.0.0" id="g9">
                        <g  gorn="0.5.0.0.0.0.0" id="g11">
                            <g  gorn="0.5.0.0.0.0.0.0" id="g19">
                                <g  gorn="0.5.0.0.0.0.0.0.0" id="g18">
                                    <g  gorn="0.5.0.0.0.0.0.0.0.0" id="g20">
                                        <g  gorn="0.5.0.0.0.0.0.0.0.0.0" id="g22">
                                            <g  gorn="0.5.0.0.0.0.0.0.0.0.0.0" id="g24">
                                                <g  gorn="0.5.0.0.0.0.0.0.0.0.0.0.0" id="g26">
                                                    <g  gorn="0.5.0.0.0.0.0.0.0.0.0.0.0.0" id="_x30_.2"/>
                                                </g>
                                            </g>
                                        </g>
                                    </g>
                                </g>
                            </g>
                        </g>
                    </g>
                </g>
            </g>
        </g>
    </g>
    <g transform="translate(187.9690532,-6.61348202)" >
        <g >
            <g  gorn="0.6.0.0" id="g27">
                <g  gorn="0.6.0.0.0" id="g29">
                    <g  gorn="0.6.0.0.0.0" id="g1906">
                        <g  gorn="0.6.0.0.0.0.0" id="g1908">
                            <g  gorn="0.6.0.0.0.0.0.0" id="g1910">
                                <g  gorn="0.6.0.0.0.0.0.0.0" id="text3273"/>
                            </g>
                        </g>
                    </g>
                </g>
            </g>
        </g>
    </g>
    <g transform="matrix(1.940465262,0,0,1.940465262,-1.583094466,-52.39256205)" >
        <g >
            <g  gorn="0.7.0.0" id="g1291">
                <g  gorn="0.7.0.0.0" id="g1293">
                    <g fill-opacity="1" xmlns:xml="http://www.w3.org/XML/1998/namespace"  gorn="0.7.0.0.0.0" font-size="137.273" stroke="none" fill="#000000" xml:space="preserve" id="text3483" style="font-style:normal;font-variant:normal;font-weight:normal;font-stretch:normal;line-height:125%;letter-spacing:0px;word-spacing:0px;font-family:Droid Sans;-inkscape-font-specification:Droid Sans"/>
                </g>
            </g>
        </g>
    </g>
    <g transform="matrix(0,-1,1,0,0,0)" >
        <g >
            <g fill-opacity="1"  gorn="0.8.0.0" font-size="143.79" stroke="none" fill="#ffffff" id="text4521" style="font-style:normal;font-variant:normal;font-weight:normal;font-stretch:normal;line-height:125%;letter-spacing:0px;word-spacing:0px;font-family:Droid Sans;-inkscape-font-specification:Droid Sans">
                <path  gorn="0.8.0.0.0" d="m -155.1159445,20.12586021 -1.2127909,-1.21279084 0,-6.06395424 1.2127909,-1.21279084 2.4255817,0 1.2127908,1.21279084 0,1.21279085 -1.2127908,0 0,-0.60639542 -0.6063954,-0.60639543 -1.2127909,0 -0.6063954,0.60639543 0,4.85116338 0.6063954,0.60639543 1.2127909,0 0.6063954,-0.60639543 0,-1.81918627 -1.2127909,0 0,-1.21279084 2.4255817,0 0,3.63837254 -1.2127908,1.21279084 -2.4255817,0" id="path5414" style="font-size:19.4046535492px;fill:#ffffff"/>
                <path  gorn="0.8.0.0.1" d="m -150.8711767,20.12586021 0,-8.48953592 0.9095931,0 2.7287794,5.45755881 0,-5.45755881 1.2127909,0 0,8.48953592 -0.9095932,0 -2.7287794,-5.45755881 0,5.45755881 -1.2127908,0" id="path5416" style="font-size:19.4046535492px;fill:#ffffff"/>
                <path  gorn="0.8.0.0.2" d="m -142.9880364,18.91306937 1.2127909,-1.21279085 0,-3.63837254 -1.2127909,-1.21279085 -1.2127908,0 0,6.06395424 1.2127908,0 m -2.4255817,1.21279084 0,-8.48953592 3.0319771,0 1.8191863,1.81918627 0,4.85116338 -1.8191863,1.81918627 -3.0319771,0" id="path5418" style="font-size:19.4046535492px;fill:#ffffff"/>
            </g>
        </g>
    </g>
    <g transform="matrix(0,-1,1,0,0,0)" >
        <g >
            <g fill-opacity="1"  gorn="0.9.0.0" font-size="143.79" stroke="none" fill="#ffffff" id="text5379" style="font-style:normal;font-variant:normal;font-weight:normal;font-stretch:normal;line-height:125%;letter-spacing:0px;word-spacing:0px;font-family:Droid Sans;-inkscape-font-specification:Droid Sans">
                <path  gorn="0.9.0.0.0" d="m -161.7863007,37.59004974 0,-1.21279084 1.8191863,0 0,-6.06395424 -1.8191863,0 0,-1.21279084 4.8511634,0 0,1.21279084 -1.8191862,0 0,6.06395424 1.8191862,0 0,1.21279084 -4.8511634,0" id="path5421" style="font-size:19.4046535492px;fill:#ffffff"/>
                <path  gorn="0.9.0.0.1" d="m -156.328742,37.59004974 0,-8.48953592 0.9095931,0 2.7287794,5.45755881 0,-5.45755881 1.2127909,0 0,8.48953592 -0.9095932,0 -2.7287794,-5.45755881 0,5.45755881 -1.2127908,0" id="path5423" style="font-size:19.4046535492px;fill:#ffffff"/>
                <path  gorn="0.9.0.0.2" d="m -149.0519971,37.59004974 0,-7.27674508 -1.8191863,0 0,-1.21279084 4.8511634,0 0,1.21279084 -1.8191863,0 0,7.27674508 -1.2127908,0" id="path5425" style="font-size:19.4046535492px;fill:#ffffff"/>
                <path  gorn="0.9.0.0.3" d="m -145.4136238,37.59004974 0,-1.81918627 3.6383725,-3.63837254 0,-1.21279084 -0.6063954,-0.60639543 -1.2127908,0 -0.6063955,0.60639543 0,0.60639542 -1.2127908,0 0,-1.21279085 1.2127908,-1.21279084 2.4255817,0 1.2127909,1.21279084 0,2.4255817 -3.6383726,3.63837254 3.6383726,0 0,1.21279084 -4.8511634,0" id="path5427" style="font-size:19.4046535492px;fill:#ffffff"/>
            </g>
        </g>
    </g>
    <g transform="matrix(0,-1,1,0,0,0)" >
        <g >
            <g fill-opacity="1"  gorn="0.10.0.0" font-size="143.79" stroke="none" fill="#ffffff" id="text5383" style="font-style:normal;font-variant:normal;font-weight:normal;font-stretch:normal;line-height:125%;letter-spacing:0px;word-spacing:0px;font-family:Droid Sans;-inkscape-font-specification:Droid Sans">
                <path  gorn="0.10.0.0.0" d="m -161.7863007,55.05423737 0,-1.21279085 1.8191863,0 0,-6.06395424 -1.8191863,0 0,-1.21279084 4.8511634,0 0,1.21279084 -1.8191862,0 0,6.06395424 1.8191862,0 0,1.21279085 -4.8511634,0" id="path5430" style="font-size:19.4046535492px;fill:#ffffff"/>
                <path  gorn="0.10.0.0.1" d="m -156.328742,55.05423737 0,-8.48953593 0.9095931,0 2.7287794,5.45755881 0,-5.45755881 1.2127909,0 0,8.48953593 -0.9095932,0 -2.7287794,-5.45755881 0,5.45755881 -1.2127908,0" id="path5432" style="font-size:19.4046535492px;fill:#ffffff"/>
                <path  gorn="0.10.0.0.2" d="m -149.0519971,55.05423737 0,-7.27674509 -1.8191863,0 0,-1.21279084 4.8511634,0 0,1.21279084 -1.8191863,0 0,7.27674509 -1.2127908,0" id="path5434" style="font-size:19.4046535492px;fill:#ffffff"/>
                <path  gorn="0.10.0.0.3" d="m -145.4136238,55.05423737 0,-1.21279085 1.8191863,0 0,-5.45755881 -1.2127909,1.21279085 0,-1.81918628 1.2127909,-1.21279084 1.2127908,0 0,7.27674508 1.8191863,0 0,1.21279085 -4.8511634,0" id="path5436" style="font-size:19.4046535492px;fill:#ffffff"/>
            </g>
        </g>
    </g>
    <g transform="matrix(0,-1,1,0,0,0)" >
        <g >
            <g fill-opacity="1"  gorn="0.11.0.0" font-size="143.79" stroke="none" fill="#ffffff" id="text5387" style="font-style:normal;font-variant:normal;font-weight:normal;font-stretch:normal;line-height:125%;letter-spacing:0px;word-spacing:0px;font-family:Droid Sans;-inkscape-font-specification:Droid Sans">
                <path  gorn="0.11.0.0.0" d="m -23.28558409,20.12586021 -1.21279085,-1.21279084 0,-1.21279085 1.21279085,0 0,0.60639542 0.60639542,0.60639543 1.21279085,0 0.60639542,-0.60639543 0,-1.21279084 -0.60639542,-0.60639543 -1.81918627,0 -1.21279085,-1.21279084 0,-2.4255817 1.21279085,-1.21279084 2.42558169,0 1.21279085,1.21279084 0,1.21279085 -1.21279085,0 0,-0.60639542 -0.60639542,-0.60639543 -1.21279085,0 -0.60639542,0.60639543 0,1.21279084 0.60639542,0.60639543 1.81918627,0 1.21279085,1.21279084 0,2.4255817 -1.21279085,1.21279084 -2.42558169,0" id="path5439" style="font-size:19.4046535492px;fill:#ffffff"/>
                <path  gorn="0.11.0.0.1" d="m -16.61523461,18.91306937 1.21279084,-1.21279085 0,-3.63837254 -1.21279084,-1.21279085 -1.21279085,0 0,6.06395424 1.21279085,0 m -2.4255817,1.21279084 0,-8.48953592 3.03197712,0 1.81918627,1.81918627 0,4.85116338 -1.81918627,1.81918627 -3.03197712,0" id="path5441" style="font-size:19.4046535492px;fill:#ffffff"/>
                <path  gorn="0.11.0.0.2" d="m -9.944885135,15.27469683 0,-1.81918627 -0.606395425,-0.60639543 -1.21279084,0 -0.60639543,0.60639543 0,1.81918627 2.425581695,0 m -3.638372545,4.85116338 0,-7.27674508 1.21279085,-1.21279084 2.425581695,0 1.212790847,1.21279084 0,7.27674508 -1.212790847,0 0,-3.63837254 -2.425581695,0 0,3.63837254 -1.21279085,0" id="path5443" style="font-size:19.4046535492px;fill:#ffffff"/>
            </g>
        </g>
    </g>
    <g transform="matrix(0,-1,1,0,0,0)" >
        <g >
            <g fill-opacity="1"  gorn="0.12.0.0" font-size="143.79" stroke="none" fill="#ffffff" id="text5391" style="font-style:normal;font-variant:normal;font-weight:normal;font-stretch:normal;line-height:125%;letter-spacing:0px;word-spacing:0px;font-family:Droid Sans;-inkscape-font-specification:Droid Sans">
                <path  gorn="0.12.0.0.0" d="m -23.28558409,37.59004974 -1.21279085,-1.21279084 0,-1.21279085 1.21279085,0 0,0.60639542 0.60639542,0.60639543 1.21279085,0 0.60639542,-0.60639543 0,-1.21279084 -0.60639542,-0.60639543 -1.81918627,0 -1.21279085,-1.21279084 0,-2.4255817 1.21279085,-1.21279084 2.42558169,0 1.21279085,1.21279084 0,1.21279085 -1.21279085,0 0,-0.60639542 -0.60639542,-0.60639543 -1.21279085,0 -0.60639542,0.60639543 0,1.21279084 0.60639542,0.60639543 1.81918627,0 1.21279085,1.21279084 0,2.4255817 -1.21279085,1.21279084 -2.42558169,0" id="path5446" style="font-size:19.4046535492px;fill:#ffffff"/>
                <path  gorn="0.12.0.0.1" d="m -17.82802546,37.59004974 -1.21279085,-1.21279084 0,-6.06395424 1.21279085,-1.21279084 2.42558169,0 1.21279085,1.21279084 0,1.21279085 -1.21279085,0 0,-0.60639542 -0.60639542,-0.60639543 -1.21279085,0 -0.60639542,0.60639543 0,4.85116338 0.60639542,0.60639543 1.21279085,0 0.60639542,-0.60639543 0,-0.60639542 1.21279085,0 0,1.21279085 -1.21279085,1.21279084 -2.42558169,0" id="path5448" style="font-size:19.4046535492px;fill:#ffffff"/>
                <path  gorn="0.12.0.0.2" d="m -13.58325768,37.59004974 0,-8.48953592 1.21279085,0 0,7.27674508 3.638372542,0 0,1.21279084 -4.851163392,0" id="path5450" style="font-size:19.4046535492px;fill:#ffffff"/>
            </g>
        </g>
    </g>
    <g transform="matrix(0,-1,1,0,0,0)" >
        <g >
            <g fill-opacity="1"  gorn="0.13.0.0" font-size="143.79" stroke="none" fill="#ffffff" id="text5395" style="font-style:normal;font-variant:normal;font-weight:normal;font-stretch:normal;line-height:125%;letter-spacing:0px;word-spacing:0px;font-family:Droid Sans;-inkscape-font-specification:Droid Sans">
                <path  gorn="0.13.0.0.0" d="m -22.67918867,55.05423737 -1.81918627,-3.63837254 0,-4.85116339 1.21279085,0 0,4.85116339 1.21279084,2.42558169 1.21279085,-2.42558169 0,-4.85116339 1.21279085,0 0,4.85116339 -1.81918627,3.63837254 -1.21279085,0" id="path5453" style="font-size:19.4046535492px;fill:#ffffff"/>
                <path  gorn="0.13.0.0.1" d="m -17.82802546,55.05423737 -1.21279085,-1.21279085 0,-6.06395424 1.21279085,-1.21279084 2.42558169,0 1.21279085,1.21279084 0,1.21279085 -1.21279085,0 0,-0.60639542 -0.60639542,-0.60639543 -1.21279085,0 -0.60639542,0.60639543 0,4.85116339 0.60639542,0.60639542 1.21279085,0 0.60639542,-0.60639542 0,-0.60639543 1.21279085,0 0,1.21279085 -1.21279085,1.21279085 -2.42558169,0" id="path5455" style="font-size:19.4046535492px;fill:#ffffff"/>
                <path  gorn="0.13.0.0.2" d="m -12.37046683,55.05423737 -1.21279085,-1.21279085 0,-6.06395424 1.21279085,-1.21279084 2.425581695,0 1.212790847,1.21279084 0,1.21279085 -1.212790847,0 0,-0.60639542 -0.606395425,-0.60639543 -1.21279084,0 -0.60639543,0.60639543 0,4.85116339 0.60639543,0.60639542 1.21279084,0 0.606395425,-0.60639542 0,-0.60639543 1.212790847,0 0,1.21279085 -1.212790847,1.21279085 -2.425581695,0" id="path5457" style="font-size:19.4046535492px;fill:#ffffff"/>
            </g>
        </g>
    </g>
    <g transform="matrix(0.4094974124,0,0,0.4094974124,16.03078586,77.95631407)" >
        <g >
            <path fill-opacity="1"  gorn="0.14.0.0" d="m 20.95837593,44.19250488 a 4.264785767,4.264785767 0 1 1 -8.52957153,0 4.264785767,4.264785767 0 1 1 8.52957153,0 z" stroke="none" fill="#ffffff" id="path5459"/>
        </g>
    </g>
    <g transform="matrix(1.940465262,0,0,1.940465262,-5.663406344,15.3632479)" >
        <g >
            <path  stroke-opacity="1" gorn="0.15.0.0" d="m 18.10156655,41.58269882 a 3.398817301,3.437006235 0 1 1 -6.7976346,0 3.398817301,3.437006235 0 1 1 6.7976346,0 z" stroke="#ffffff" stroke-width="1.3500000238" fill="none" id="path5461" style="stroke-miterlimit:4;stroke-dasharray:none"/>
        </g>
    </g>
    <g  gorn="0.16" id="g5527">
        <path fill-opacity="1"  stroke-opacity="1" gorn="0.16.0" d="m 29.50315902,96.05303047 30.03840227,0" stroke="#ffffff" stroke-width="2.619628191" fill="#ffffff" style="stroke-linecap:round;stroke-linejoin:round;stroke-miterlimit:4;stroke-dasharray:none;stroke-dashoffset:0" id="path5463"/>
        <path fill-opacity="1"  stroke-opacity="1" gorn="0.16.1" d="m 49.06304887,90.81377426 10.47851242,5.23925621" stroke="#ffffff" stroke-width="2.619628191" fill="#ffffff" id="path5465" style="stroke-linecap:round;stroke-linejoin:round;stroke-miterlimit:4;stroke-dasharray:none;stroke-dashoffset:0"/>
        <path fill-opacity="1"  stroke-opacity="1" gorn="0.16.2" d="M 49.06304887,101.2922867 59.54156129,96.05303047" stroke="#ffffff" stroke-width="2.619628191" fill="#ffffff" style="stroke-linecap:round;stroke-linejoin:round;stroke-miterlimit:4;stroke-dasharray:none;stroke-dashoffset:0" id="path5525"/>
    </g>
    <g transform="matrix(0,-1,1,0,-73.18626263,118.5705145)" >
        <g >
            <g  gorn="0.17.0.0" id="g5532">
                <path fill-opacity="1"  stroke-opacity="1" gorn="0.17.0.0.0" d="m 29.50315902,96.05303047 30.03840227,0" stroke="#ffffff" stroke-width="2.619628191" fill="#ffffff" id="path5534" style="stroke-linecap:round;stroke-linejoin:round;stroke-miterlimit:4;stroke-dasharray:none;stroke-dashoffset:0"/>
                <path fill-opacity="1"  stroke-opacity="1" gorn="0.17.0.0.1" d="m 49.06304887,90.81377426 10.47851242,5.23925621" stroke="#ffffff" stroke-width="2.619628191" fill="#ffffff" style="stroke-linecap:round;stroke-linejoin:round;stroke-miterlimit:4;stroke-dasharray:none;stroke-dashoffset:0" id="path5536"/>
                <path fill-opacity="1"  stroke-opacity="1" gorn="0.17.0.0.2" d="M 49.06304887,101.2922867 59.54156129,96.05303047" stroke="#ffffff" stroke-width="2.619628191" fill="#ffffff" id="path5538" style="stroke-linecap:round;stroke-linejoin:round;stroke-miterlimit:4;stroke-dasharray:none;stroke-dashoffset:0"/>
            </g>
        </g>
    </g>
    <g fill-opacity="1"  gorn="0.18" font-size="35.9474" stroke="none" fill="#ffffff" style="font-style:normal;font-variant:normal;font-weight:normal;font-stretch:normal;line-height:125%;letter-spacing:0px;word-spacing:0px;font-family:Droid Sans;-inkscape-font-specification:Droid Sans" id="text5544">
        <path  gorn="0.18.0" d="m 5.402580261,104.7851334 0,-0.7276745 4.002209664,-8.00441935 -4.002209664,0 0,-1.45534897 5.821395879,0 0,0.72767449 -4.002209668,8.00441933 4.002209668,0 0,1.455349 -5.821395879,0" style="font-size:23.2855834961px" id="path3058"/>
    </g>
    <g fill-opacity="1"  gorn="0.19" font-size="35.9474" stroke="none" fill="#ffffff" style="font-style:normal;font-variant:normal;font-weight:normal;font-stretch:normal;line-height:125%;letter-spacing:0px;word-spacing:0px;font-family:Droid Sans;-inkscape-font-specification:Droid Sans" id="text5548">
        <path  gorn="0.19.0" d="m 56.04872513,89.06735229 0,-0.72767448 2.18302345,-4.3660469 -2.18302345,-4.36604691 0,-0.72767448 1.45534897,0 0,0.72767448 1.45534897,2.91069794 1.45534896,-2.91069794 0,-0.72767448 1.45534897,0 0,0.72767448 -2.18302345,4.36604691 2.18302345,4.3660469 0,0.72767448 -1.45534897,0 0,-0.72767448 -1.45534896,-2.91069794 -1.45534897,2.91069794 0,0.72767448 -1.45534897,0" style="font-size:23.2855834961px" id="path3064"/>
    </g>
    <g fill-opacity="1"  gorn="0.20" font-size="35.9474" stroke="none" fill="#ffffff" style="font-style:normal;font-variant:normal;font-weight:normal;font-stretch:normal;line-height:125%;letter-spacing:0px;word-spacing:0px;font-family:Droid Sans;-inkscape-font-specification:Droid Sans" id="text5552">
        <path  gorn="0.20.0" d="m 30.28904724,62.87107468 0,-5.09372139 -2.18302345,-4.36604691 0,-0.72767448 1.45534897,0 0,0.72767448 1.45534897,2.91069794 1.45534896,-2.91069794 0,-0.72767448 1.45534897,0 0,0.72767448 -2.18302345,4.36604691 0,5.09372139 -1.45534897,0" style="font-size:23.2855834961px" id="path3061"/>
    </g>
    <g  gorn="0.21" id="g3104">
        <g  gorn="0.21.0" id="g3095">
            <path fill-opacity="1"  gorn="0.21.0.0" d="m 15.88109289,116.124718 c -2.89356129,0 -5.23925621,2.3214391 -5.23925621,5.2150004 l 0,10.4906403 c 0,2.8935613 2.34569492,5.2756399 5.23925621,5.2756399 2.89356132,0 5.23925621,-2.3820786 5.23925621,-5.2756399 l 0,-10.4906403 c 0,-2.8935613 -2.34569489,-5.2150004 -5.23925621,-5.2150004 z" stroke="none" fill="#bebebe" id="path5350"/>
        </g>
        <g transform="matrix(2.37783211,0,0,2.32532911,-4.732135601,-23.37321254)" >
            <g >
                <path fill-opacity="1"  gorn="0.21.1.0.0" d="m 10.13783348,64.50208282 c 0,0.82957757 -0.657656445,1.50208307 -1.468916778,1.50208307 -0.811260333,0 -1.468916774,-0.6725055 -1.468916774,-1.50208307 0,-0.82957756 0.657656441,-1.50208306 1.468916774,-1.50208306 0.811260333,0 1.468916778,0.6725055 1.468916778,1.50208306 z" stroke="none" fill="#ffffff" id="connector3pin"/>
            </g>
        </g>
    </g>
    <g transform="translate(17.46418736,0)" >
        <g >
            <g >
                <g  gorn="0.22.0.0.0" id="use3109">
                    <g  gorn="0.22.0.0.0.0" id="g3095">
                        <path fill-opacity="1"  gorn="0.22.0.0.0.0.0" d="m 15.88109289,116.124718 c -2.89356129,0 -5.23925621,2.3214391 -5.23925621,5.2150004 l 0,10.4906403 c 0,2.8935613 2.34569492,5.2756399 5.23925621,5.2756399 2.89356132,0 5.23925621,-2.3820786 5.23925621,-5.2756399 l 0,-10.4906403 c 0,-2.8935613 -2.34569489,-5.2150004 -5.23925621,-5.2150004 z" stroke="none" fill="#bebebe" id="path5350"/>
                    </g>
                    <g transform="matrix(2.37783211,0,0,2.32532911,-4.732135601,-23.37321254)" >
                        <g >
                            <path fill-opacity="1"  gorn="0.22.0.0.0.1.0.0" d="m 10.13783348,64.50208282 c 0,0.82957757 -0.657656445,1.50208307 -1.468916778,1.50208307 -0.811260333,0 -1.468916774,-0.6725055 -1.468916774,-1.50208307 0,-0.82957756 0.657656441,-1.50208306 1.468916774,-1.50208306 0.811260333,0 1.468916778,0.6725055 1.468916778,1.50208306 z" stroke="none" fill="#ffffff" id="connector4pin"/>
                        </g>
                    </g>
                </g>
            </g>
        </g>
    </g>
    <g transform="translate(34.92837472,0)" >
        <g >
            <g >
                <g  gorn="0.23.0.0.0" id="use3111">
                    <g  gorn="0.23.0.0.0.0" id="g3095">
                        <path fill-opacity="1"  gorn="0.23.0.0.0.0.0" d="m 15.88109289,116.124718 c -2.89356129,0 -5.23925621,2.3214391 -5.23925621,5.2150004 l 0,10.4906403 c 0,2.8935613 2.34569492,5.2756399 5.23925621,5.2756399 2.89356132,0 5.23925621,-2.3820786 5.23925621,-5.2756399 l 0,-10.4906403 c 0,-2.8935613 -2.34569489,-5.2150004 -5.23925621,-5.2150004 z" stroke="none" fill="#bebebe" id="path5350"/>
                    </g>
                    <g transform="matrix(2.37783211,0,0,2.32532911,-4.732135601,-23.37321254)" >
                        <g >
                            <path fill-opacity="1"  gorn="0.23.0.0.0.1.0.0" d="m 10.13783348,64.50208282 c 0,0.82957757 -0.657656445,1.50208307 -1.468916778,1.50208307 -0.811260333,0 -1.468916774,-0.6725055 -1.468916774,-1.50208307 0,-0.82957756 0.657656441,-1.50208306 1.468916774,-1.50208306 0.811260333,0 1.468916778,0.6725055 1.468916778,1.50208306 z" stroke="none" fill="#ffffff" id="connector5pin"/>
                        </g>
                    </g>
                </g>
            </g>
        </g>
    </g>
    <g transform="translate(34.92837472,-87.32093678)" >
        <g >
            <g >
                <g  gorn="0.24.0.0.0" id="use3113">
                    <g  gorn="0.24.0.0.0.0" id="g3095">
                        <path fill-opacity="1"  gorn="0.24.0.0.0.0.0" d="m 15.88109289,116.124718 c -2.89356129,0 -5.23925621,2.3214391 -5.23925621,5.2150004 l 0,10.4906403 c 0,2.8935613 2.34569492,5.2756399 5.23925621,5.2756399 2.89356132,0 5.23925621,-2.3820786 5.23925621,-5.2756399 l 0,-10.4906403 c 0,-2.8935613 -2.34569489,-5.2150004 -5.23925621,-5.2150004 z" stroke="none" fill="#bebebe" id="path5350"/>
                    </g>
                    <g transform="matrix(2.37783211,0,0,2.32532911,-4.732135601,-23.37321254)" >
                        <g >
                            <path fill-opacity="1"  gorn="0.24.0.0.0.1.0.0" d="m 10.13783348,64.50208282 c 0,0.82957757 -0.657656445,1.50208307 -1.468916778,1.50208307 -0.811260333,0 -1.468916774,-0.6725055 -1.468916774,-1.50208307 0,-0.82957756 0.657656441,-1.50208306 1.468916774,-1.50208306 0.811260333,0 1.468916778,0.6725055 1.468916778,1.50208306 z" stroke="none" fill="#ffffff" id="connector0pin"/>
                        </g>
                    </g>
                </g>
            </g>
        </g>
    </g>
    <g transform="translate(17.46418736,-87.32093679)" >
        <g >
            <g >
                <g  gorn="0.25.0.0.0" id="use3115">
                    <g  gorn="0.25.0.0.0.0" id="g3095">
                        <path fill-opacity="1"  gorn="0.25.0.0.0.0.0" d="m 15.88109289,116.124718 c -2.89356129,0 -5.23925621,2.3214391 -5.23925621,5.2150004 l 0,10.4906403 c 0,2.8935613 2.34569492,5.2756399 5.23925621,5.2756399 2.89356132,0 5.23925621,-2.3820786 5.23925621,-5.2756399 l 0,-10.4906403 c 0,-2.8935613 -2.34569489,-5.2150004 -5.23925621,-5.2150004 z" stroke="none" fill="#bebebe" id="path5350"/>
                    </g>
                    <g transform="matrix(2.37783211,0,0,2.32532911,-4.732135601,-23.37321254)" >
                        <g >
                            <path fill-opacity="1"  gorn="0.25.0.0.0.1.0.0" d="m 10.13783348,64.50208282 c 0,0.82957757 -0.657656445,1.50208307 -1.468916778,1.50208307 -0.811260333,0 -1.468916774,-0.6725055 -1.468916774,-1.50208307 0,-0.82957756 0.657656441,-1.50208306 1.468916774,-1.50208306 0.811260333,0 1.468916778,0.6725055 1.468916778,1.50208306 z" stroke="none" fill="#ffffff" id="connector1pin"/>
                        </g>
                    </g>
                </g>
            </g>
        </g>
    </g>
    <g transform="translate(0,-87.32093679)" >
        <g >
            <g >
                <g  gorn="0.26.0.0.0" id="use3117">
                    <g  gorn="0.26.0.0.0.0" id="g3095">
                        <path fill-opacity="1"  gorn="0.26.0.0.0.0.0" d="m 15.88109289,116.124718 c -2.89356129,0 -5.23925621,2.3214391 -5.23925621,5.2150004 l 0,10.4906403 c 0,2.8935613 2.34569492,5.2756399 5.23925621,5.2756399 2.89356132,0 5.23925621,-2.3820786 5.23925621,-5.2756399 l 0,-10.4906403 c 0,-2.8935613 -2.34569489,-5.2150004 -5.23925621,-5.2150004 z" stroke="none" fill="#bebebe" id="path5350"/>
                    </g>
                    <g transform="matrix(2.37783211,0,0,2.32532911,-4.732135601,-23.37321254)" >
                        <g >
                            <path fill-opacity="1"  gorn="0.26.0.0.0.1.0.0" d="m 10.13783348,64.50208282 c 0,0.82957757 -0.657656445,1.50208307 -1.468916778,1.50208307 -0.811260333,0 -1.468916774,-0.6725055 -1.468916774,-1.50208307 0,-0.82957756 0.657656441,-1.50208306 1.468916774,-1.50208306 0.811260333,0 1.468916778,0.6725055 1.468916778,1.50208306 z" stroke="none" fill="#ffffff" id="connector2pin"/>
                        </g>
                    </g>
                </g>
            </g>
        </g>
    </g>
</svg>
