<?xml version="1.0" encoding="UTF-8" standalone="no"?>
<!-- Generator: Adobe Illustrator 15.1.0, SVG Export Plug-In . SVG Version: 6.00 Build 0)  -->

<svg
   xmlns:dc="http://purl.org/dc/elements/1.1/"
   xmlns:cc="http://creativecommons.org/ns#"
   xmlns:rdf="http://www.w3.org/1999/02/22-rdf-syntax-ns#"
   xmlns:svg="http://www.w3.org/2000/svg"
   xmlns="http://www.w3.org/2000/svg"
   xmlns:sodipodi="http://sodipodi.sourceforge.net/DTD/sodipodi-0.dtd"
   xmlns:inkscape="http://www.inkscape.org/namespaces/inkscape"
   width="74.15625"
   gorn="0"
   xml:space="preserve"
   height="75.49246979"
   version="1.1"
   x="0px"
   y="0px"
   id="Ebene_1"
   viewBox="0 0 59.32502205 60.39394389"
   enable-background="new 0 0 67.668 63.697"
   inkscape:version="0.48.5 r10040"
   sodipodi:docname="hw_battery.svg"><sodipodi:namedview
     pagecolor="#ffffff"
     bordercolor="#666666"
     borderopacity="1"
     objecttolerance="10"
     gridtolerance="10"
     guidetolerance="10"
     inkscape:pageopacity="0"
     inkscape:pageshadow="2"
     inkscape:window-width="640"
     inkscape:window-height="480"
     id="namedview50"
     showgrid="false"
     inkscape:zoom="64.86268864"
     inkscape:cx="32.67012946"
     inkscape:cy="1.889651871"
     inkscape:window-x="139"
     inkscape:window-y="225"
     inkscape:window-maximized="0"
     inkscape:current-layer="Ebene_1" /><metadata
     id="metadata98"><rdf:RDF><cc:Work
         rdf:about=""><dc:format>image/svg+xml</dc:format><dc:type
           rdf:resource="http://purl.org/dc/dcmitype/StillImage" /><dc:title /></cc:Work></rdf:RDF></metadata><defs
     id="defs96" /><desc
     id="desc3"><referenceFile
       id="referenceFile5">sparkfun-electromechanical_battcom_20mm_pth_breadboard.svg</referenceFile></desc><path
     gorn="0.3"
     d="m 29.65005049,7.257167263 c -12.00470042,0 -22.2433124,6.929406347 -26.375969771,16.700006207 l -1.959084711,2.36051158 0,7.21449198 c 0,14.5130589 12.680236482,26.27500976 28.335054482,26.27500976 15.65481798,0 28.35894576,-11.76195086 28.35894576,-26.27500976 0,-0.56478917 0.0378658,-1.11906601 0,-1.67500062 l 0,-6.16577165 -1.95908479,-1.73423129 C 51.91725417,14.18657361 41.65475092,7.257167263 29.65005049,7.257167263 z"
     id="circle3182"
     style="fill:#b3b3b3;fill-opacity:1"
     inkscape:connector-curvature="0" /><g
     transform="matrix(1,0,0,0.8859518675,99.09999967,150.4529241)"
     id="g8"><g
       id="g10"><circle
         gorn="0.4.0.0"
         d="m -41.09100342,-140.8220062 c 0,15.6556158 -12.69138425,28.3470001 -28.34700012,28.3470001 -15.65561587,0 -28.34700012,-12.6913843 -28.34700012,-28.3470001 0,-15.6556159 12.69138425,-28.3470001 28.34700012,-28.3470001 15.65561587,0 28.34700012,12.6913842 28.34700012,28.3470001 z"
         id="circle42"
         cx="-69.43800354"
         cy="-140.8220062"
         style="fill:#b3b3b3"
         r="28.34700012"
         sodipodi:cx="-69.43800354"
         sodipodi:cy="-140.8220062"
         sodipodi:rx="28.34700012"
         sodipodi:ry="28.34700012" /></g></g><path
     d="m 35.34899967,38.5651769 0,0.7805236 -11.349,0 0,-0.7805236 z"
     gorn="0.5"
     id="path46"
     style="fill:#ffffff"
     inkscape:connector-curvature="0" /><path
     d="m 1.899365775,26.31122752 c 0.292132916,0 0.529226297,-0.21153996 0.529226297,-0.4721874 0,-13.41106649 12.229361268,-24.322372889 27.260446568,-24.322372889 15.03214374,0 27.26150502,10.911306399 27.26150502,24.322372889 0,0.26064744 0.23709338,0.4721874 0.52922629,0.4721874 0.29213292,0 0.5292263,-0.21153996 0.5292263,-0.4721874 0,-13.93236138 -12.70354803,-25.2667476858 -28.31995761,-25.2667476858 -15.61535113,0 -28.318899162,11.3343863058 -28.318899162,25.2667476858 0,0.26064744 0.237093381,0.4721874 0.529226297,0.4721874 z"
     gorn="0.6"
     id="path80"
     style="opacity:0.6458333333;fill:#e6e6e6"
     inkscape:connector-curvature="0" /><path
     d="m 29.68903864,51.10673218 c 15.61535112,0 28.31995761,-11.33533068 28.31995761,-25.26769206 0,-0.26064744 -0.23709338,-0.4721874 -0.5292263,-0.4721874 -0.29213291,0 -0.52922629,0.21153996 -0.52922629,0.4721874 0,13.41201087 -12.22936128,24.32331726 -27.26150502,24.32331726 -15.0310853,0 -27.260446568,-10.91130639 -27.260446568,-24.32331726 0,-0.26064744 -0.237093381,-0.4721874 -0.529226297,-0.4721874 -0.292132916,0 -0.529226297,0.21153996 -0.529226297,0.4721874 0,13.93236138 12.703548032,25.26769206 28.318899162,25.26769206 z"
     gorn="0.7"
     id="path84"
     style="fill:#999999"
     inkscape:connector-curvature="0" /><g
     transform="matrix(0.8000002973,0,0,0.6358080995,47.12285888,14.87261503)"
     id="g16"><g
       id="g18"><path
         d="m -3.108131409,13.93418217 a 19.77117539,19.77117539 0 1 1 -39.542350771,0 19.77117539,19.77117539 0 1 1 39.542350771,0 z"
         gorn="0.8.0.0"
         id="path3899"
         style="opacity:0.6458333333;fill:none;stroke:none"
         inkscape:connector-curvature="0" /></g></g><g
     transform="matrix(1.164388226,0,0,0.8588200891,0,-0.5867842434)"
     id="g21"><g
       id="g23"><g
         font-size="6.59574"
         gorn="0.9.0.0"
         id="text3904"
         style="font-size:6.5957398415px;font-style:normal;font-variant:normal;font-weight:normal;font-stretch:normal;line-height:125%;letter-spacing:0px;word-spacing:0px;fill:#ffffff;fill-opacity:1;stroke:none;font-family:Droid Sans;-inkscape-font-specification:Droid Sans"><path
           d="m 19.09542767,21.83976249 c 0.23975174,0.0626244 0.42404011,0.18429054 0.55286567,0.3649987 0.13060952,0.18071175 0.1959156,0.39273284 0.19591842,0.63606389 -2.82e-6,0.36321028 -0.12435274,0.65842952 -0.37305014,0.8856586 -0.24870229,0.22722962 -0.55734058,0.3408443 -0.9259158,0.34084436 -0.37036747,-6e-8 -0.67184893,-0.10109029 -0.90444529,-0.30327097 -0.23259759,-0.20218021 -0.35784211,-0.46966673 -0.37573395,-0.80246036 l 0.52334372,0 c -7.7e-7,0.19323545 0.0653053,0.35963174 0.19591841,0.49918939 0.13061119,0.13955872 0.31758337,0.20933781 0.56091711,0.20933748 0.23617387,3.3e-7 0.42404065,-0.076041 0.56360092,-0.22812418 0.14134531,-0.15208208 0.21201901,-0.3488949 0.2120213,-0.59043906 -2.29e-6,-0.24690948 -0.0733598,-0.43656548 -0.22007274,-0.56896855 -0.14492788,-0.13418884 -0.35694897,-0.20128412 -0.6360639,-0.20128604 l -0.1932346,0 0,-0.39452065 0.115404,0 c 0.49024149,2.31e-6 0.73536291,-0.22543783 0.73536501,-0.67632111 -2.1e-6,-0.19859904 -0.0536783,-0.35068167 -0.16102883,-0.45624836 -0.10735439,-0.1055598 -0.25854242,-0.15834142 -0.45356455,-0.15834502 -0.40078397,3.6e-6 -0.6244349,0.20844627 -0.67095348,0.62532864 l -0.5206599,0 c 0.0375731,-0.33278961 0.16460679,-0.58596247 0.38110157,-0.75951934 0.21649344,-0.17533859 0.48308535,-0.26300976 0.79977655,-0.26301376 0.3506832,4e-6 0.62979956,0.0957266 0.83734994,0.28716809 0.20754576,0.1896597 0.3113198,0.43478113 0.31132242,0.73536501 -2.62e-6,0.16818848 -0.0456274,0.32742795 -0.13687451,0.47771888 -0.0894629,0.14850672 -0.22723184,0.26212139 -0.41330735,0.34084436"
           gorn="0.9.0.0.0"
           id="path3964"
           style="font-size:5.496450901px;fill:#ffffff;font-family:Droid Sans;-inkscape-font-specification:Droid Sans"
           inkscape:connector-curvature="0" /><path
           d="m 20.08307123,24.0002327 0,0"
           gorn="0.9.0.0.1"
           id="path3966"
           style="font-size:5.496450901px;fill:#ffffff;font-family:Droid Sans;-inkscape-font-specification:Droid Sans"
           inkscape:connector-curvature="0" /><path
           d="m 25.17158244,20.06576149 -1.52977393,3.93447121 -0.53676279,0 -1.52977393,-3.93447121 0.55554948,0 1.24260585,3.3735541 1.24260584,-3.3735541 0.55554948,0"
           gorn="0.9.0.0.2"
           id="path3968"
           style="font-size:5.496450901px;fill:#ffffff;font-family:Droid Sans;-inkscape-font-specification:Droid Sans"
           inkscape:connector-curvature="0" /><path
           d="m 26.74161343,21.0882946 c 0.40614858,2.91e-6 0.72999513,0.12972045 0.97154064,0.38915302 0.24332972,0.2594376 0.36499583,0.62622514 0.36499869,1.1003637 -2.86e-6,0.4723522 -0.12166897,0.83913974 -0.36499869,1.10036371 -0.24154551,0.2594354 -0.56539206,0.38915295 -0.97154064,0.38915301 -0.40436242,-6e-8 -0.72820897,-0.12971761 -0.97154063,-0.38915301 -0.24154357,-0.26122397 -0.36231508,-0.62801151 -0.36231488,-1.10036371 -2e-7,-0.47413856 0.12077131,-0.8409261 0.36231488,-1.1003637 0.24333166,-0.25943257 0.56717821,-0.38915011 0.97154063,-0.38915302 m 0,2.58182898 c 0.24154149,3.3e-7 0.43745971,-0.0912492 0.58775525,-0.27374901 0.15029132,-0.18428777 0.22543803,-0.45714191 0.22544037,-0.81856325 -2.34e-6,-0.3632077 -0.0751491,-0.63606184 -0.22544037,-0.81856324 -0.15029554,-0.18428613 -0.34621376,-0.27643032 -0.58775525,-0.27643284 -0.24154453,2.52e-6 -0.43746275,0.0921467 -0.58775524,0.27643284 -0.15029437,0.1825014 -0.22544109,0.45535554 -0.22544037,0.81856324 -7.2e-7,0.36142134 0.075146,0.63427548 0.22544037,0.81856325 0.15029249,0.18249976 0.34621071,0.27374934 0.58775524,0.27374901"
           gorn="0.9.0.0.3"
           id="path3970"
           style="font-size:5.496450901px;fill:#ffffff;font-family:Droid Sans;-inkscape-font-specification:Droid Sans"
           inkscape:connector-curvature="0" /><path
           d="m 29.15436266,24.0002327 -0.50724083,0 0,-3.93447121 0.50724083,0 0,3.93447121"
           gorn="0.9.0.0.4"
           id="path3972"
           style="font-size:5.496450901px;fill:#ffffff;font-family:Droid Sans;-inkscape-font-specification:Droid Sans"
           inkscape:connector-curvature="0" /><path
           d="m 30.98740745,24.00560032 c -0.11093234,0.0214705 -0.23170385,0.0322057 -0.36231488,0.0322058 -0.20754918,-4e-8 -0.35963182,-0.0366788 -0.45624836,-0.11003637 -0.0966179,-0.0751466 -0.15655632,-0.17086924 -0.17981553,-0.28716809 -0.0232602,-0.11629813 -0.03489,-0.27464299 -0.0348896,-0.47503506 l 0,-1.61565598 -0.35157962,0 0,-0.39720446 0.35157962,0 0,-0.70852687 0.50455702,0 0,0.70852687 0.46161599,0 0,0.39720446 -0.46161599,0 0,1.64249412 c -9.5e-7,0.19502442 0.0241533,0.31937434 0.072463,0.37305013 0.0500968,0.0518874 0.11808667,0.077831 0.20396985,0.0778306 0.0876699,3.5e-7 0.1717627,-0.007156 0.25227851,-0.0214705 l 0,0.38378539"
           gorn="0.9.0.0.5"
           id="path3974"
           style="font-size:5.496450901px;fill:#ffffff;font-family:Droid Sans;-inkscape-font-specification:Droid Sans"
           inkscape:connector-curvature="0" /><path
           d="m 32.42324803,24.06732804 c -0.77830665,-6e-8 -1.18535136,-0.30595454 -1.22113534,-0.91786436 l 0.50724083,0 c 0.003578,0.34710711 0.23975313,0.52066023 0.70852688,0.5206599 0.20933589,3.3e-7 0.36857536,-0.0429406 0.47771888,-0.12882306 0.110929,-0.0876707 0.16639443,-0.19681237 0.16639646,-0.3274253 -2.03e-6,-0.12882215 -0.0536783,-0.21917713 -0.16102884,-0.27106521 -0.10735431,-0.0536752 -0.32921604,-0.12255965 -0.66558585,-0.20665367 -0.334583,-0.0840915 -0.57970443,-0.17802488 -0.73536501,-0.28180046 -0.15387231,-0.10377249 -0.23080823,-0.28627165 -0.230808,-0.54749804 -2.3e-7,-0.23617329 0.0957224,-0.43119691 0.28716809,-0.58507143 0.19323389,-0.15565838 0.45087976,-0.2334889 0.77293841,-0.23349181 0.74609823,2.91e-6 1.12719942,0.26570022 1.14330473,0.79709273 l -0.50455702,0 c -0.017894,-0.26837901 -0.21917985,-0.40256957 -0.60385813,-0.40257209 -0.16997604,2.52e-6 -0.31132343,0.0322083 -0.4240426,0.0966173 -0.11093177,0.0644139 -0.1663972,0.15834729 -0.16639646,0.28180047 -7.4e-7,0.110933 0.0429402,0.19144734 0.12882307,0.24154325 0.0858811,0.0483105 0.30058598,0.11451117 0.64411534,0.19860223 0.34531553,0.0823052 0.6011722,0.17892245 0.76757078,0.2898519 0.16818322,0.11093227 0.25227597,0.30237747 0.2522785,0.57433618 -2.53e-6,0.25943592 -0.10377656,0.47503542 -0.31132241,0.64679915 -0.20576108,0.1699749 -0.48308824,0.25496226 -0.83198231,0.25496232"
           gorn="0.9.0.0.6"
           id="path3976"
           style="font-size:5.496450901px;fill:#ffffff;font-family:Droid Sans;-inkscape-font-specification:Droid Sans"
           inkscape:connector-curvature="0" /></g></g></g><g
     transform="matrix(0.8000002973,0,0,0.8000002973,0,-0.5868114374)"
     id="g33"><g
       id="g35"><g
         font-size="9.6"
         gorn="0.10.0.0"
         xml:space="preserve"
         id="text3908"
         style="font-size:9.6000003815px;font-style:normal;font-variant:normal;font-weight:normal;font-stretch:normal;line-height:125%;letter-spacing:0px;word-spacing:0px;fill:#000000;fill-opacity:1;stroke:none;font-family:Droid Sans;-inkscape-font-specification:Droid Sans" /></g></g><path
     d="m 29.28423787,33.917443 0.7805236,0 0,10.07599139 -0.7805236,0 z"
     gorn="0.11"
     id="path46-9"
     style="fill:#ffffff"
     inkscape:connector-curvature="0" /><g
     transform="matrix(1,0,0,0.8243494424,1.105114124,0.2336157672)"
     id="g39"><g
       id="g41"><g
         font-size="7.68001"
         gorn="0.12.0.0"
         id="text3886"
         style="font-size:7.6800098419px;font-style:normal;font-variant:normal;font-weight:normal;font-stretch:normal;line-height:125%;letter-spacing:0px;word-spacing:0px;fill:#ffffff;fill-opacity:1;stroke:none;font-family:Droid Sans;-inkscape-font-specification:Droid Sans"><path
           d="m 15.95732816,17.17285499 c -0.62786333,0.74184533 -1.37285168,1.1286816 -2.23496729,1.16050998 -0.86248253,0.0274273 -1.70996657,-0.31114835 -2.54245467,-1.01572792 -0.83248344,-0.70457445 -1.305288435,-1.48342968 -1.418416399,-2.33656804 -0.113486965,-0.85753275 0.14369812,-1.65722288 0.771556029,-2.3990728 0.482507,-0.57009041 1.04719684,-0.9252928 1.6940712,-1.06560826 0.64687694,-0.14029873 1.24316664,-0.0225102 1.78887091,0.35336585 l -0.60565419,0.71560453 c -0.35578914,-0.25198805 -0.74151002,-0.33075702 -1.15716379,-0.23630715 -0.41363241,0.0920796 -0.78700398,0.33490667 -1.12011583,0.72848197 -0.45020012,0.53193897 -0.62285467,1.10840363 -0.51796416,1.72939572 0.10251095,0.61898339 0.49367679,1.216158 1.17349869,1.79152562 0.67744,0.57335535 1.3300463,0.86162765 1.95782087,0.86481777 0.6277741,0.003195 1.16474367,-0.25878952 1.61091033,-0.7859542 0.34723954,-0.41027632 0.5276745,-0.82663092 0.54130542,-1.24906506 0.0136262,-0.42242523 -0.15148466,-0.80780743 -0.49533292,-1.15614775 l 0.6056542,-0.71560453 c 0.51577272,0.52250839 0.76178659,1.10737123 0.73804234,1.75459026 -0.0237507,0.64722817 -0.28697071,1.26781556 -0.78966074,1.86176401"
           gorn="0.12.0.0.0"
           id="path3979"
           style="fill:#ffffff;fill-opacity:1"
           inkscape:connector-curvature="0" /><path
           d="m 24.13066314,12.03762711 -0.90406768,0.3894309 -1.31918487,-1.42737618 c -0.2347696,-0.2527393 -0.5163623,-0.42066215 -0.84477894,-0.50376907 -0.32842244,-0.0830987 -0.6533552,-0.055418 -0.97479924,0.0830422 l -1.54552522,0.6657414 1.1627294,2.69928778 -0.83518633,0.35975998 -2.71859857,-6.311253422 2.79399963,-1.203526926 c 0.48790828,-0.210161029 0.90724442,-0.33464909 1.25800969,-0.373464557 0.3507612,-0.03879908 0.68924785,0.05187633 1.01546099,0.272026519 0.32620702,0.220166026 0.57152517,0.521103621 0.73595518,0.902813686 0.18791188,0.436255112 0.21863803,0.855148519 0.0921785,1.256681475 -0.12646726,0.401544479 -0.39009557,0.741375644 -0.79088572,1.019494516 l 0.007418,0.01722034 c 0.49969312,-0.04851463 0.9978624,0.187739949 1.49450932,0.708764449 l 1.37276609,1.44512696 m -5.9110275,-1.5420155 1.86410145,-0.802969431 C 20.60321504,9.468879137 20.94395783,9.225128978 21.10596671,8.961391021 21.27083975,8.696428071 21.26673764,8.363040044 21.09366034,7.961225942 20.78458557,7.243719275 20.1794513,7.07905973 19.27825569,7.467246813 l -1.99325398,0.858602414 0.93463416,2.169762433"
           gorn="0.12.0.0.1"
           id="path3981"
           style="fill:#ffffff;fill-opacity:1"
           inkscape:connector-curvature="0" /><path
           d="M 29.46207493,11.6391131 24.9239192,11.988223 c -0.0321189,-0.41751612 0.0665061,-0.82628468 0.29587517,-1.22630689 0.22936788,-0.40001972 0.66701467,-0.903821525 1.31294168,-1.51140693 C 27.18153536,8.639573813 27.62097983,8.159140448 27.85107078,7.809207644 28.08091561,7.456167451 28.1796605,7.069329287 28.14730577,6.648691991 28.11829968,6.271686509 27.98647633,5.984075434 27.75183535,5.785857905 27.51694843,5.584537034 27.20165373,5.499093847 26.80595031,5.529528088 26.463211,5.55590055 26.17871572,5.687484202 25.95246361,5.924279439 c -0.22625475,0.23680741 -0.33866146,0.568280389 -0.33722046,0.99441993 l -0.9113701,0.07010961 c 0.003592,-0.605177905 0.18790116,-1.102027931 0.55292716,-1.490551567 0.36790084,-0.391866093 0.87277816,-0.612490541 1.51463348,-0.661874006 0.68235633,-0.0524851 1.22306694,0.09083891 1.62213347,0.429972433 0.39881932,0.336031224 0.61944348,0.779791065 0.66187317,1.331280853 0.0383461,0.49853215 -0.0648325,0.949963124 -0.30953616,1.354294278 -0.24495155,0.401223479 -0.74946774,0.972854014 -1.51355009,1.714893319 -0.76097176,0.741804301 -1.14157572,1.213009851 -1.14181301,1.413618071 l 3.30897452,-0.25455181 0.0625593,0.81322255"
           gorn="0.12.0.0.2"
           id="path3983"
           style="fill:#ffffff;fill-opacity:1"
           inkscape:connector-curvature="0" /><path
           d="m 33.95835474,5.25372179 c 1.46561512,0.288531568 1.96905315,1.597930691 1.51031559,3.928201299 -0.45633408,2.318010841 -1.41730792,3.332752441 -2.88292441,3.044227851 -1.46255553,-0.28792225 -1.9656677,-1.59088727 -1.50933802,-3.908898978 0.45874196,-2.330269743 1.41938994,-3.351445446 2.88194684,-3.063530172 m -1.23860743,6.29174345 c 0.42619194,0.0839017 0.79011245,-0.0578495 1.09176262,-0.42525399 0.30164253,-0.36740358 0.55507927,-1.07235089 0.760311,-2.114844046 0.20582618,-1.04555412 0.23910383,-1.797027447 0.0998331,-2.254422235 C 34.53297745,6.290493723 34.25054419,6.018314833 33.82435335,5.934407485 33.401221,5.851115069 33.03822996,5.99623421 32.73537913,6.369765342 c -0.3022527,0.370475436 -0.55629306,1.078488896 -0.76212183,2.124042505 -0.20522913,1.042493664 -0.23790317,1.790900843 -0.0980222,2.245223783 0.13987718,0.45432465 0.42138098,0.72313558 0.84451223,0.80643361"
           gorn="0.12.0.0.3"
           id="path3985"
           style="fill:#ffffff;fill-opacity:1"
           inkscape:connector-curvature="0" /><path
           d="m 39.55041843,14.91030993 -4.00859974,-2.15589038 c 0.19834442,-0.36879645 0.50202476,-0.65965185 0.91104193,-0.87256708 0.40901484,-0.21291376 1.04937857,-0.40075746 1.92109314,-0.56353166 0.87594077,-0.16404364 1.50520313,-0.33124576 1.88778896,-0.50160685 0.38405605,-0.17310971 0.67599899,-0.44543973 0.87582971,-0.816990863 C 41.31666885,9.666708147 41.36095895,9.35344163 41.27044286,9.059922606 41.18139497,8.76365848 40.96210861,8.521532946 40.61258311,8.333545278 40.30983453,8.170729302 39.99932023,8.127919386 39.68103926,8.205115402 39.36274949,8.282320237 39.08919322,8.500669896 38.86036964,8.860165034 l -0.8050226,-0.432954298 c 0.32970815,-0.507489643 0.75306351,-0.826237105 1.27006735,-0.956243343 0.52122815,-0.131267977 1.06532201,-0.04444557 1.63228321,0.260467483 0.60272859,0.324165213 0.98052144,0.736696801 1.13337966,1.237596001 0.15432478,0.49815428 0.10049429,0.990800295 -0.16149166,1.477939523 -0.23683612,0.44035597 -0.56737947,0.76466577 -0.99163106,0.97293035 -0.42278271,0.20551477 -1.15605099,0.41435846 -2.19980704,0.6265317 -1.04101074,0.21365457 -1.61576081,0.40485186 -1.72425192,0.57359247 l 2.9228513,1.57195714 -0.38632845,0.71832787"
           gorn="0.12.0.0.4"
           id="path3987"
           style="fill:#ffffff;fill-opacity:1"
           inkscape:connector-curvature="0" /><path
           d="m 44.2203356,13.59125482 c 0.43084276,0.0775971 0.81293694,0.30897351 1.14628368,0.69412981 0.37423694,0.43241654 0.54683048,0.94223101 0.51778112,1.52944494 -0.0266981,0.58516753 -0.29524032,1.09861591 -0.8056276,1.54034667 -0.53402657,0.46217672 -1.11716065,0.68376112 -1.74940397,0.66475385 -0.62784187,-0.0186951 -1.17387317,-0.29623351 -1.63809553,-0.83261595 -0.38037897,-0.43950653 -0.58384951,-0.9205315 -0.61041221,-1.44307637 -0.0265647,-0.52254608 0.1796991,-1.01722359 0.61879206,-1.484034 l 0.59817466,0.69115692 c -0.28155092,0.30979728 -0.4214089,0.62095085 -0.41957436,0.93346164 0.006239,0.31282718 0.11876886,0.59565776 0.33759023,0.84849257 0.27812324,0.32135652 0.62476834,0.47595898 1.03993636,0.46380786 0.41720668,-0.009792 0.80539409,-0.17011045 1.16456339,-0.48095488 0.36388645,-0.31493767 0.56304541,-0.66501585 0.59747749,-1.05023558 0.0344222,-0.3852208 -0.0884495,-0.73969145 -0.36861531,-1.06341302 -0.32107578,-0.37097905 -0.73602314,-0.56152348 -1.24484332,-0.57163388 l -0.45399923,-0.52457038 2.93355018,-2.15454083 2.41110403,2.78589405 -0.61672463,0.53375586 -1.9172265,-2.21524654 -1.54073054,1.13507726"
           gorn="0.12.0.0.5"
           id="path3989"
           style="fill:#ffffff;fill-opacity:1"
           inkscape:connector-curvature="0" /></g></g></g></svg>