<?xml version="1.0" encoding="UTF-8" standalone="no"?>
<!-- Created with Fritzing (http://www.fritzing.org/) -->

<svg
   xmlns:dc="http://purl.org/dc/elements/1.1/"
   xmlns:cc="http://creativecommons.org/ns#"
   xmlns:rdf="http://www.w3.org/1999/02/22-rdf-syntax-ns#"
   xmlns:svg="http://www.w3.org/2000/svg"
   xmlns="http://www.w3.org/2000/svg"
   xmlns:xlink="http://www.w3.org/1999/xlink"
   xmlns:sodipodi="http://sodipodi.sourceforge.net/DTD/sodipodi-0.dtd"
   xmlns:inkscape="http://www.inkscape.org/namespaces/inkscape"
   version="1.2"
   x="0in"
   y="0in"
   width="54.72393417"
   height="78.42438507"
   viewBox="0 0 43.77910792 62.73951311"
   id="svg2"
   inkscape:version="0.48.5 r10040"
   sodipodi:docname="hw_speaker.svg">
  <metadata
     id="metadata1784">
    <rdf:RDF>
      <cc:Work
         rdf:about="">
        <dc:format>image/svg+xml</dc:format>
        <dc:type
           rdf:resource="http://purl.org/dc/dcmitype/StillImage" />
      </cc:Work>
    </rdf:RDF>
  </metadata>
  <defs
     id="defs1782">
    <radialGradient
       inkscape:collect="always"
       xlink:href="#linearGradient3613"
       id="radialGradient4143"
       gradientUnits="userSpaceOnUse"
       gradientTransform="matrix(1.6154602,-0.7886113,0.91752289,1.8795339,-694.27306,-530.59453)"
       cx="341.448822"
       cy="579.8062134"
       fx="341.448822"
       fy="579.8062134"
       r="135.34375" />
    <linearGradient
       id="linearGradient3613">
      <stop
         style="stop-color:#383838;stop-opacity:1;"
         offset="0"
         id="stop3615" />
      <stop
         style="stop-color:#000000;stop-opacity:1;"
         offset="1"
         id="stop3617" />
    </linearGradient>
    <radialGradient
       inkscape:collect="always"
       xlink:href="#linearGradient3605"
       id="radialGradient4145"
       gradientUnits="userSpaceOnUse"
       gradientTransform="matrix(1.2249489,0,0,1.2249489,-37.022558,-417.65199)"
       cx="309.7512207"
       cy="511.6011047"
       fx="309.7512207"
       fy="511.6011047"
       r="36.53516006" />
    <linearGradient
       id="linearGradient3605">
      <stop
         style="stop-color:#787878;stop-opacity:1;"
         offset="0"
         id="stop3607" />
      <stop
         style="stop-color:#060000;stop-opacity:1;"
         offset="1"
         id="stop3609" />
    </linearGradient>
    <filter
       color-interpolation-filters="sRGB"
       inkscape:collect="always"
       id="filter4092">
      <feGaussianBlur
         inkscape:collect="always"
         stdDeviation="0.8828246"
         id="feGaussianBlur4094" />
    </filter>
    <filter
       color-interpolation-filters="sRGB"
       inkscape:collect="always"
       id="filter3969"
       x="-0.6480000019"
       width="2.296000004"
       y="-0.6480000019"
       height="2.296000004">
      <feGaussianBlur
         inkscape:collect="always"
         stdDeviation="6.49124"
         id="feGaussianBlur3971" />
    </filter>
    <linearGradient
       inkscape:collect="always"
       xlink:href="#linearGradient3983"
       id="linearGradient4147"
       gradientUnits="userSpaceOnUse"
       x1="228.21875"
       y1="374.84375"
       x2="458.71875"
       y2="700.84375" />
    <linearGradient
       id="linearGradient3983">
      <stop
         style="stop-color:#ffffff;stop-opacity:1;"
         offset="0"
         id="stop3985" />
      <stop
         id="stop3995"
         offset="0.19812939"
         style="stop-color:#ffffff;stop-opacity:0;" />
      <stop
         id="stop3991"
         offset="0.57630819"
         style="stop-color:#ffffff;stop-opacity:0;" />
      <stop
         style="stop-color:#ffffff;stop-opacity:1;"
         offset="0.81139344"
         id="stop3993" />
      <stop
         style="stop-color:#ffffff;stop-opacity:1;"
         offset="1"
         id="stop3987" />
    </linearGradient>
    <filter
       color-interpolation-filters="sRGB"
       inkscape:collect="always"
       id="filter4009">
      <feGaussianBlur
         inkscape:collect="always"
         stdDeviation="2.925"
         id="feGaussianBlur4011" />
    </filter>
    <linearGradient
       inkscape:collect="always"
       xlink:href="#linearGradient4031"
       id="linearGradient4149"
       gradientUnits="userSpaceOnUse"
       gradientTransform="translate(33.941125,-299.81327)"
       x1="192.28125"
       y1="408.84375"
       x2="464.65625"
       y2="589.84375" />
    <linearGradient
       id="linearGradient4031">
      <stop
         style="stop-color:#000000;stop-opacity:1;"
         offset="0"
         id="stop4033" />
      <stop
         id="stop4039"
         offset="0.5"
         style="stop-color:#ffffff;stop-opacity:0;" />
      <stop
         style="stop-color:#ffffff;stop-opacity:0;"
         offset="0.75"
         id="stop4041" />
      <stop
         style="stop-color:#ffffff;stop-opacity:1;"
         offset="1"
         id="stop4035" />
    </linearGradient>
    <filter
       color-interpolation-filters="sRGB"
       inkscape:collect="always"
       id="filter4063">
      <feGaussianBlur
         inkscape:collect="always"
         stdDeviation="1.1423125"
         id="feGaussianBlur4065" />
    </filter>
    <linearGradient
       inkscape:collect="always"
       xlink:href="#linearGradient4331"
       id="linearGradient4151"
       gradientUnits="userSpaceOnUse"
       gradientTransform="translate(33.941125,-299.81327)"
       x1="183.5625"
       y1="380.84375"
       x2="480.9375"
       y2="657.84375" />
    <linearGradient
       id="linearGradient4331">
      <stop
         style="stop-color:#ffffff;stop-opacity:0.78021979;"
         offset="0"
         id="stop4333" />
      <stop
         id="stop4339"
         offset="0.5"
         style="stop-color:#ffffff;stop-opacity:0;" />
      <stop
         style="stop-color:#ffffff;stop-opacity:0;"
         offset="0.75"
         id="stop4341" />
      <stop
         style="stop-color:#444343;stop-opacity:0.71428573;"
         offset="1"
         id="stop4335" />
    </linearGradient>
    <linearGradient
       y2="657.84375"
       x2="480.9375"
       y1="380.84375"
       x1="183.5625"
       gradientTransform="translate(33.941125,-299.81327)"
       gradientUnits="userSpaceOnUse"
       id="linearGradient4218"
       xlink:href="#linearGradient4331"
       inkscape:collect="always" />
  </defs>
  <sodipodi:namedview
     pagecolor="#ffffff"
     bordercolor="#666666"
     borderopacity="1"
     objecttolerance="10"
     gridtolerance="10"
     guidetolerance="10"
     inkscape:pageopacity="0"
     inkscape:pageshadow="2"
     inkscape:window-width="1566"
     inkscape:window-height="976"
     id="namedview1780"
     showgrid="true"
     inkscape:zoom="6.907996879"
     inkscape:cx="54.66181132"
     inkscape:cy="19.00197015"
     inkscape:window-x="117"
     inkscape:window-y="238"
     inkscape:window-maximized="0"
     inkscape:current-layer="svg2"
     inkscape:snap-bbox="true"
     inkscape:bbox-paths="true"
     inkscape:bbox-nodes="true"
     showguides="true"
     inkscape:guide-bbox="true"
     inkscape:snap-center="true"
     inkscape:snap-object-midpoints="true"
     inkscape:snap-smooth-nodes="true"
     inkscape:object-nodes="true"
     inkscape:object-paths="true"
     inkscape:snap-bbox-edge-midpoints="true"
     fit-margin-top="0"
     fit-margin-left="0"
     fit-margin-right="0"
     fit-margin-bottom="0"
     inkscape:snap-nodes="true">
    <inkscape:grid
       type="xygrid"
       id="grid2997"
       units="in"
       empspacing="10"
       visible="true"
       enabled="true"
       snapvisiblegridlinesonly="true"
       spacingx="0.01in"
       spacingy="0.01in"
       originx="-1.799999995in"
       originy="-1.199999998in" />
  </sodipodi:namedview>
  <path
     style="font-size:medium;font-style:normal;font-variant:normal;font-weight:normal;font-stretch:normal;text-indent:0;text-align:start;text-decoration:none;line-height:normal;letter-spacing:normal;word-spacing:normal;text-transform:none;direction:ltr;block-progression:tb;writing-mode:lr-tb;text-anchor:start;baseline-shift:baseline;color:#000000;fill:#cc1414;fill-opacity:1;stroke:#8c0000;stroke-width:0.8000000715;stroke-miterlimit:4;stroke-opacity:1;stroke-dasharray:none;marker:none;visibility:visible;display:inline;overflow:visible;enable-background:accumulate;font-family:Sans;-inkscape-font-specification:Sans"
     d="m 30.84994489,34.36451198 a 1.000100081,1.000100081 0 0 0 -0.72500006,1.57500013 c 1.86442996,2.7589792 3.51165009,5.38145927 4.57500037,7.70000062 1.06335028,2.31854134 1.52367863,4.3046012 1.2500001,5.80000046 -0.27367853,1.49539927 -1.16463095,2.66454469 -3.40000027,3.6000003 -2.23536933,0.9354556 -5.80225681,1.50000012 -10.95000089,1.50000012 a 1.000100081,1.000100081 0 1 0 0,2.00000016 c 5.29225676,0 9.07501893,-0.56603774 11.72500095,-1.67500014 2.64998202,-1.1089624 4.18039809,-2.8938651 4.57500037,-5.0500004 0.39460227,-2.15613531 -0.25213965,-4.52219223 -1.40000012,-7.02500057 -1.14786046,-2.50280834 -2.811307,-5.18011648 -4.70000038,-7.97500064 a 1.000100081,1.000100081 0 0 0 -0.95000007,-0.45000004 z"
     id="path3926"
     inkscape:connector-curvature="0" />
  <path
     style="font-size:medium;font-style:normal;font-variant:normal;font-weight:normal;font-stretch:normal;text-indent:0;text-align:start;text-decoration:none;line-height:normal;letter-spacing:normal;word-spacing:normal;text-transform:none;direction:ltr;block-progression:tb;writing-mode:lr-tb;text-anchor:start;baseline-shift:baseline;color:#000000;fill:#404040;fill-opacity:1;stroke:#000000;stroke-width:0.8000000715;stroke-miterlimit:4;stroke-opacity:1;stroke-dasharray:none;marker:none;visibility:visible;display:inline;overflow:visible;enable-background:accumulate;font-family:Sans;-inkscape-font-specification:Sans"
     d="m 35.31873178,30.90201101 a 1.000100119,1.000100119 0 0 0 -0.625,1.59375 c 3.23014162,4.3068555 5.23072521,8.11454587 6.125,11.3125 0.89427479,3.19795413 0.70157287,5.7684148 -0.40625,7.8125 -1.10782287,2.0440852 -3.16288389,3.65124751 -6.3125,4.78125 -3.14961611,1.13000249 -7.35773788,1.75 -12.5,1.75 a 1.000100119,1.000100119 0 1 0 0,2 c 5.29773872,0 9.69272721,-0.63237574 13.15625,-1.875 3.46352279,-1.24262426 6.00966295,-3.14185526 7.40625,-5.71875 1.39658705,-2.57689474 1.58566134,-5.73414457 0.59375,-9.28125 -0.99191134,-3.54710543 -3.14024241,-7.53073988 -6.46875,-11.96875 a 1.000100119,1.000100119 0 0 0 -0.96875,-0.40625 z"
     id="path3926-4"
     inkscape:connector-curvature="0" />
  <rect
     style="opacity:0.989999988;fill:#000000;fill-opacity:1;fill-rule:nonzero;stroke:none"
     id="rect4761"
     width="26.49946594"
     height="10.80000114"
     x="-4.054024976e-05"
     y="51.93951416"
     rx="1"
     ry="1" />
  <g
     id="g4129"
     transform="matrix(0.112032578,0,0,0.112032578,-17.54532626,-4.095220879)">
    <path
       id="path4352"
       d="m 349.40987,40.12423 c -100.594,0 -183.90625,83.31225 -183.90625,183.90625 0,100.594 83.31225,183.90625 183.90625,183.90625 100.594,0 183.90626,-83.31225 183.90626,-183.90625 0,-100.594 -83.31226,-183.90625 -183.90626,-183.90625 z"
       style="color:#000000;fill:#000000;fill-opacity:1;stroke:#666666;stroke-width:7.1407809258;marker:none;visibility:visible;display:inline;overflow:visible;enable-background:accumulate"
       inkscape:connector-curvature="0" />
    <path
       style="color:#000000;fill:#141414;fill-opacity:1;stroke:#666666;stroke-width:7.1407809258;marker:none;visibility:visible;display:inline;overflow:visible;enable-background:accumulate"
       d="m 349.40987,42.34298 c -99.36424,0 -181.6875,82.32326 -181.6875,181.6875 0,99.36424 82.32326,181.6875 181.6875,181.6875 99.36424,0 181.68751,-82.32326 181.68751,-181.6875 0,-99.36424 -82.32327,-181.6875 -181.68751,-181.6875 z"
       id="path4140"
       inkscape:connector-curvature="0" />
    <path
       style="color:#000000;fill:#000000;fill-opacity:1;stroke:none;stroke-width:1;marker:none;visibility:visible;display:inline;overflow:visible;enable-background:accumulate"
       d="m 349.40987,65.81173 c -86.3439,0 -158.21875,71.87485 -158.21875,158.21875 0,86.3439 71.87485,158.21875 158.21875,158.21875 86.34391,0 158.21875,-71.87485 158.21875,-158.21875 0,-86.3439 -71.87484,-158.21875 -158.21875,-158.21875 z"
       id="path4142"
       inkscape:connector-curvature="0" />
    <path
       style="color:#000000;fill:url(#radialGradient4143);fill-opacity:1;stroke:none;stroke-width:1;marker:none;visibility:visible;display:inline;overflow:visible;enable-background:accumulate"
       d="m 349.40987,89.18673 c -73.29784,0 -134.84375,61.54591 -134.84375,134.84375 0,73.29784 61.54591,134.84375 134.84375,134.84375 73.29784,0 134.84375,-61.54591 134.84375,-134.84375 0,-73.29784 -61.54591,-134.84375 -134.84375,-134.84375 z"
       id="path4144"
       inkscape:connector-curvature="0" />
    <g
       transform="matrix(1.437484245,0,0,1.437484245,-152.8599876,-97.5202461)"
       id="g3875">
      <path
         inkscape:connector-curvature="0"
         id="path4146"
         d="m 393.54807,224.0332 c 0,24.37853 -19.7627,44.14123 -44.14123,44.14123 -24.37853,0 -44.14123,-19.7627 -44.14123,-44.14123 0,-24.37852 19.7627,-44.14123 44.14123,-44.14123 24.37852,0 44.14123,19.76271 44.14123,44.14123 z"
         style="color:#000000;fill:url(#radialGradient4145);fill-opacity:1;stroke:none;stroke-width:1;marker:none;visibility:visible;display:inline;overflow:visible;filter:url(#filter4092);enable-background:accumulate" />
      <path
         transform="matrix(0.6888122501,0,0,0.6888122501,104.9604959,63.87074264)"
         inkscape:connector-curvature="0"
         id="path4148"
         d="m 349.31075,205.24825 c 0,6.63892 -5.3819,12.02082 -12.02081,12.02082 -6.63892,0 -12.02082,-5.3819 -12.02082,-12.02082 0,-6.63891 5.3819,-12.02081 12.02082,-12.02081 6.63891,0 12.02081,5.3819 12.02081,12.02081 z"
         style="color:#000000;fill:#ffffff;fill-opacity:1;fill-rule:nonzero;stroke:none;stroke-width:10.5;marker:none;visibility:visible;display:inline;overflow:visible;filter:url(#filter3969);enable-background:accumulate" />
    </g>
    <path
       id="path4345"
       d="m 315.46875,379.3125 c -78.86108,0 -144.53125,65.67017 -144.53125,144.53125 0,78.86108 65.67017,144.53125 144.53125,144.53125 C 394.32983,668.375 460,602.70483 460,523.84375 460,444.98267 394.32983,379.3125 315.46875,379.3125 z m 0,6.53125 c 75.33051,0 138,62.66949 138,138 0,75.33051 -62.66949,138 -138,138 -75.33051,0 -138,-62.66949 -138,-138 0,-75.33051 62.66949,-138 138,-138 z"
       style="opacity:0.4416666667;color:#000000;fill:url(#linearGradient4147);fill-opacity:1;stroke:#999999;stroke-width:6.6008992195;marker:none;visibility:visible;display:inline;overflow:visible;filter:url(#filter4009);enable-background:accumulate"
       transform="matrix(1.0260977,0,0,1.0260977,25.708105,-313.48441)"
       inkscape:connector-curvature="0" />
    <path
       style="color:#000000;fill:url(#linearGradient4149);fill-opacity:1;stroke:none;stroke-width:1.0315022469;marker:none;visibility:visible;display:inline;overflow:visible;filter:url(#filter4063);enable-background:accumulate"
       d="m 350.40987,60.84298 c -89.06392,0 -163.1875,74.12357 -163.1875,163.1875 0,89.06393 74.12358,163.1875 163.1875,163.1875 89.06394,0 163.18751,-74.12357 163.18751,-163.1875 0,-89.06393 -74.12357,-163.1875 -163.18751,-163.1875 z m 0,4.96875 c 86.34391,0 158.21875,71.87485 158.21875,158.21875 0,86.3439 -71.87484,158.21875 -158.21875,158.21875 -86.3439,0 -158.21875,-71.87485 -158.21875,-158.21875 0,-86.3439 71.87485,-158.21875 158.21875,-158.21875 z"
       id="path4152"
       inkscape:connector-curvature="0" />
    <path
       id="path4284"
       d="m 349.19112,41.34298 c -99.36424,0 -181.6875,82.32326 -181.6875,181.6875 0,99.36424 82.32326,181.6875 181.6875,181.6875 99.36424,0 181.68751,-82.32326 181.68751,-181.6875 0,-99.36424 -82.32327,-181.6875 -181.68751,-181.6875 z m 0,4 c 97.18266,0 177.71876,80.50484 177.71876,177.6875 0,97.18266 -80.5361,177.6875 -177.71876,177.6875 -97.18266,0 -177.6875,-80.50484 -177.6875,-177.6875 0,-97.18266 80.50484,-177.6875 177.6875,-177.6875 z"
       style="color:#000000;fill:url(#linearGradient4218);fill-opacity:1;stroke:none;stroke-width:1;marker:none;visibility:visible;display:inline;overflow:visible;enable-background:accumulate"
       inkscape:connector-curvature="0" />
  </g>
</svg>
