<?xml version='1.0' encoding='UTF-8' standalone='no'?>
<!-- Created with Fritzing (http://www.fritzing.org/) -->
<svg xmlns:svg='http://www.w3.org/2000/svg' xmlns='http://www.w3.org/2000/svg' version='1.2' baseProfile='tiny' x='0in' y='0in' width='3.73639in' height='2.43869in' viewBox='0 0 269.02 175.586' >
<path stroke='#000000' stroke-width='2.99599' stroke-linecap='round' stroke-linejoin='round' fill='none' d='M35.6393,81.468L35.6393,89.712' />
<path stroke='#ff0000' stroke-width='2.99599' stroke-linecap='round' stroke-linejoin='round' fill='none' d='M42.8706,81.468L42.8706,89.712' />
<g partID='854154130'><g transform='translate(0,13.8096)' ><g xmlns="http://www.w3.org/2000/svg" id="breadboard">
 <rect xmlns="http://www.w3.org/2000/svg" x="34.1483" y="65.9117" width="0.998664" height="0.998663" id="connector0pin" fill="none"/>
 <rect xmlns="http://www.w3.org/2000/svg" x="41.3367" y="65.9117" width="0.998664" height="0.998663" id="connector1pin" fill="none"/>
 <g xmlns="http://www.w3.org/2000/svg" x1="35.687" stroke-linecap="round" x2="35.687" stroke="#000000" id="connector0leg" stroke-width="2.99599" y1="67.749" fill="none" y2="76.004"/>
 <g xmlns="http://www.w3.org/2000/svg" x1="42.928" stroke-linecap="round" x2="42.928" stroke="#FF0000" id="connector1leg" stroke-width="2.99599" y1="67.749" fill="none" y2="76.004"/>
 <path xmlns="http://www.w3.org/2000/svg" stroke="#000000" stroke-width="2.99599" fill="none" d="M35.6393,53.0609l0,14.5975"/>
 <path xmlns="http://www.w3.org/2000/svg" stroke="#FF0000" stroke-width="2.99599" fill="none" d="M42.8706,53.0609l0,14.5975"/>
 <g xmlns="http://www.w3.org/2000/svg">
  <path xmlns="http://www.w3.org/2000/svg" d="M3.67908,22.9872C1.90445,23.4087,0,25.7755,0,28.3301c0,2.55458,1.77662,4.86049,3.67908,5.34285c1.90345,0.479358,10.2902,2.59852,10.2902,2.59852L13.9693,20.3887L3.67908,22.9872zM5.48666,30.3823c-1.13448,0,-2.05325,-0.919768,-2.05325,-2.05325c0,-1.13448,0.918771,-2.05525,2.05325,-2.05525c1.13448,0,2.05325,0.919768,2.05325,2.05525C7.53991,29.4635,6.62114,30.3823,5.48666,30.3823z"/>
 </g>
 <g xmlns="http://www.w3.org/2000/svg">
  <path xmlns="http://www.w3.org/2000/svg" d="M74.8009,22.9852c-1.90245,-0.478359,-10.2902,-2.59852,-10.2902,-2.59852l0,15.8817l10.2902,-2.59852c1.77363,-0.422434,3.68008,-2.78827,3.68008,-5.34285C78.48,25.7725,76.7044,23.4666,74.8009,22.9852zM72.9933,30.3833c-1.13348,0,-2.05425,-0.919768,-2.05425,-2.05325c0,-1.13448,0.920768,-2.05425,2.05425,-2.05425c1.13448,0,2.05425,0.919768,2.05425,2.05425C75.0476,29.4635,74.1278,30.3833,72.9933,30.3833z"/>
 </g>
 <circle xmlns="http://www.w3.org/2000/svg" r="28.3271" fill="#0D0D0D" cx="39.2395" cy="28.3291"/>
 <g xmlns="http://www.w3.org/2000/svg">
  <circle xmlns="http://www.w3.org/2000/svg" r="28.3281" cx="39.2395" cy="28.3301"/>
 </g>
 <circle xmlns="http://www.w3.org/2000/svg" r="4.80757" fill="#D7D8D9" cx="39.2405" cy="28.3301"/>
 <path xmlns="http://www.w3.org/2000/svg" stroke="#58595B" stroke-linecap="round" stroke-linejoin="round" stroke-width="1.85492" fill="none" d="M12.5123,33.3244c-1.28628,-6.87679,0.0679091,-14.2429,4.35817,-20.4496C25.404,0.519305,42.3404,-2.57855,54.6968,5.96002"/>
 <g xmlns="http://www.w3.org/2000/svg">
  <g xmlns="http://www.w3.org/2000/svg">
   <path xmlns="http://www.w3.org/2000/svg" stroke="#3F3F41" stroke-linecap="round" stroke-linejoin="round" stroke-width="0.208221" fill="none" d="M54.0946,43.1832c8.21201,-8.212,8.21201,-21.4972,0,-29.7082c-8.21201,-8.212,-21.4972,-8.212,-29.7103,0c-8.21101,8.211,-8.21002,21.4962,0,29.7082C32.5974,51.3942,45.8846,51.3942,54.0946,43.1832z"/>
   <path xmlns="http://www.w3.org/2000/svg" stroke="#3F3F41" stroke-linecap="round" stroke-linejoin="round" stroke-width="0.208221" fill="none" d="M26.0402,41.5314c-7.29624,-7.29723,-7.29624,-19.1054,0,-26.4026c7.29624,-7.29723,19.1034,-7.29623,26.4017,0c7.29624,7.29823,7.29524,19.1034,-0.000998664,26.4016C45.1446,48.8266,33.3364,48.8286,26.0402,41.5314z"/>
   <path xmlns="http://www.w3.org/2000/svg" stroke="#3F3F41" stroke-linecap="round" stroke-linejoin="round" stroke-width="0.208221" fill="none" d="M50.795,39.8836c6.38446,-6.38245,6.37647,-16.7186,-0.00699065,-23.1001c-6.38346,-6.38345,-16.7186,-6.38944,-23.1011,-0.00699064c-6.38346,6.38245,-6.37447,16.7176,0.00798931,23.1021C34.0774,46.2571,44.4136,46.267,50.795,39.8836z"/>
   <path xmlns="http://www.w3.org/2000/svg" stroke="#3F3F41" stroke-linecap="round" stroke-linejoin="round" stroke-width="0.208221" fill="none" d="M29.3348,38.2378c-5.47667,-5.47667,-5.46269,-14.3398,0.00699065,-19.8085c5.46868,-5.46968,14.3318,-5.48266,19.8065,-0.00699064c5.47368,5.47467,5.46269,14.3378,-0.00599198,19.8065C43.6726,43.6995,34.8094,43.7125,29.3348,38.2378z"/>
   <path xmlns="http://www.w3.org/2000/svg" stroke="#3F3F41" stroke-linecap="round" stroke-linejoin="round" stroke-width="0.208221" fill="none" d="M47.4955,36.583c4.5559,-4.5559,4.5609,-11.945,0,-16.5079c-4.5609,-4.56189,-11.953,-4.5549,-16.5069,0c-4.55491,4.5559,-4.5629,11.945,0,16.5079C35.5494,41.1459,42.9405,41.1369,47.4955,36.583z"/>
   <path xmlns="http://www.w3.org/2000/svg" stroke="#3F3F41" stroke-linecap="round" stroke-linejoin="round" stroke-width="0.208221" fill="none" d="M32.6413,34.9292c-3.64812,-3.64712,-3.65611,-9.54422,0,-13.2003c3.65511,-3.65511,9.55122,-3.64811,13.2003,0.000998663c3.64812,3.64811,3.65511,9.54422,0,13.1993C42.1856,38.5863,36.2894,38.5773,32.6413,34.9292z"/>
  </g>
 </g>
 <path xmlns="http://www.w3.org/2000/svg" stroke="#303032" stroke-linecap="round" stroke-linejoin="round" stroke-width="1.85492" fill="none" d="M27.8877,53.037c13.6487,6.26661,29.7931,0.288614,36.0598,-13.3591c3.41743,-7.43904,3.19373,-15.6241,0.0709051,-22.5438"/>
</g>
</g></g><path stroke='#000000' stroke-width='3' stroke-linecap='round' stroke-linejoin='round' fill='none' d='M136.439,110.255L136.439,118.512' />
<path stroke='#ff0000' stroke-width='3' stroke-linecap='round' stroke-linejoin='round' fill='none' d='M143.667,110.255L143.667,118.512' />
<g partID='854154160'><g transform='translate(100.366,0)' ><g xmlns="http://www.w3.org/2000/svg" id="breadboard">
 <rect xmlns="http://www.w3.org/2000/svg" x="34.984" y="109" width="1" height="0.2" id="connector0pin" fill="#919191"/>
 <rect xmlns="http://www.w3.org/2000/svg" x="42.203" y="109" width="1" height="0.2" id="connector1pin" fill="#919191"/>
 <g xmlns="http://www.w3.org/2000/svg" x1="36.073" stroke-linecap="round" x2="36.073" stroke="#000000" id="connector0leg" stroke-width="3" y1="110.255" fill="none" y2="118.512"/>
 <g xmlns="http://www.w3.org/2000/svg" x1="43.301" stroke-linecap="round" x2="43.301" stroke="#ff0000" id="connector1leg" stroke-width="3" y1="110.255" fill="none" y2="118.512"/>
 <path xmlns="http://www.w3.org/2000/svg" stroke="#000000" stroke-width="3" fill="none" d="M36.073,99.892l0,10.363"/>
 <path xmlns="http://www.w3.org/2000/svg" stroke="#FF0000" stroke-width="3" fill="none" d="M43.301,99.892l0,10.363"/>
 <g xmlns="http://www.w3.org/2000/svg">
  <g xmlns="http://www.w3.org/2000/svg">
   <path xmlns="http://www.w3.org/2000/svg" d="M79.344,95.675c0,2.494,-2.04,4.534,-4.533,4.534L4.533,100.209C2.04,100.209,0,98.169,0,95.675L0,4.55c0,-2.494,2.04,-4.534,4.533,-4.534l70.277,0c2.493,0,4.533,2.04,4.533,4.534L79.343,95.675z"/>
   <g xmlns="http://www.w3.org/2000/svg">
    <g xmlns="http://www.w3.org/2000/svg">
     <path xmlns="http://www.w3.org/2000/svg" fill="#1E1E1E" d="M77.221,22.887c-4.087,-8.389,-10.9,-15.204,-19.29,-19.29L21.414,3.597c-8.39,4.086,-15.203,10.901,-19.29,19.29l0,36.517c4.087,8.39,10.9,15.203,19.289,19.291l36.519,0c8.389,-4.088,15.202,-10.9,19.289,-19.29L77.221,22.887z"/>
     <rect xmlns="http://www.w3.org/2000/svg" x="21.413" y="78.573" width="36.517" height="21.581" fill="#1E1E1E"/>
     <g xmlns="http://www.w3.org/2000/svg">
      <circle xmlns="http://www.w3.org/2000/svg" r="35.827" fill="#333333" cx="39.673" cy="41.033"/>
      <circle xmlns="http://www.w3.org/2000/svg" stroke="#B3B3B3" stroke-width="3.6" r="29.962" fill="none" cx="39.673" cy="41.033"/>
      <circle xmlns="http://www.w3.org/2000/svg" stroke="#BCBCBC" stroke-width="0.8" r="29.962" fill="none" cx="39.673" cy="41.033"/>
      <g xmlns="http://www.w3.org/2000/svg">
       <g xmlns="http://www.w3.org/2000/svg">
        <path xmlns="http://www.w3.org/2000/svg" fill="#424242" d="M46.642,31.971c0.332,-0.574,0.136,-1.308,-0.438,-1.639l-0.53,-0.307c-0.574,-0.332,-1.309,-0.135,-1.641,0.438l-2.639,4.572l2.607,1.506L46.642,31.971z"/>
        <path xmlns="http://www.w3.org/2000/svg" fill="#424242" d="M35.254,30.481c-0.332,-0.574,-1.064,-0.771,-1.64,-0.439l-0.53,0.307c-0.573,0.33,-0.771,1.064,-0.438,1.638l2.64,4.573l2.608,-1.507L35.254,30.481z"/>
       </g>
       <g xmlns="http://www.w3.org/2000/svg">
        <g xmlns="http://www.w3.org/2000/svg">
         <circle xmlns="http://www.w3.org/2000/svg" stroke="#333333" stroke-width="1.6" r="7.331" fill="none" cx="39.673" cy="41.146"/>
         <circle xmlns="http://www.w3.org/2000/svg" r="7.331" cx="39.673" cy="41.146"/>
        </g>
        <path xmlns="http://www.w3.org/2000/svg" stroke="#FFFFFF" stroke-linecap="round" opacity="0.19" enable-background="new    " stroke-width="1.6" fill="none" d="M44.651,44.236c-1.034,1.662,-2.877,2.769,-4.978,2.769c-2.856,0,-5.234,-2.043,-5.753,-4.747"/>
        <path xmlns="http://www.w3.org/2000/svg" opacity="0.56" enable-background="new    " fill="#FFFFFF" d="M39.538,35.768c0.409,0.641,-0.32,1.795,-1.573,2.632c-1.251,0.837,-2.551,1.039,-2.946,0.409c-0.416,-0.644,0.235,-1.867,1.483,-2.708S39.127,35.127,39.538,35.768z"/>
       </g>
      </g>
     </g>
     <g xmlns="http://www.w3.org/2000/svg">
      <circle xmlns="http://www.w3.org/2000/svg" r="1.231" fill="#8C8C8C" cx="12.27" cy="13.922"/>
      <circle xmlns="http://www.w3.org/2000/svg" r="1.231" fill="#8C8C8C" cx="67.075" cy="13.922"/>
      <circle xmlns="http://www.w3.org/2000/svg" r="1.231" fill="#8C8C8C" cx="12.27" cy="68.729"/>
      <circle xmlns="http://www.w3.org/2000/svg" r="1.231" fill="#8C8C8C" cx="67.075" cy="68.729"/>
     </g>
    </g>
   </g>
  </g>
  <path xmlns="http://www.w3.org/2000/svg" d="M50.603,91.315c0,0.663,-0.537,1.199,-1.2,1.199l-19.46,0c-0.663,0,-1.2,-0.536,-1.2,-1.199l0,-2.399c0,-0.663,0.537,-1.199,1.2,-1.199l19.46,0c0.663,0,1.2,0.536,1.2,1.199L50.603,91.315z"/>
 </g>
 <path xmlns="http://www.w3.org/2000/svg" stroke="#333333" stroke-linecap="round" stroke-width="2" fill="none" d="M2.834,14.409L2.834,5.683c0,-1.559,1.274,-2.833,2.833,-2.833l5.893,0"/>
 <path xmlns="http://www.w3.org/2000/svg" stroke="#333333" stroke-linecap="round" stroke-width="2" fill="none" d="M76.834,14.409L76.834,5.683c0,-1.559,-1.275,-2.833,-2.833,-2.833l-5.894,0"/>
 <path xmlns="http://www.w3.org/2000/svg" stroke="#333333" stroke-linecap="round" stroke-width="2" fill="none" d="M76.835,74.669L76.835,94.73c0,1.56,-1.275,2.834,-2.834,2.834l-5.894,0"/>
 <path xmlns="http://www.w3.org/2000/svg" stroke="#333333" stroke-linecap="round" stroke-width="2" fill="none" d="M2.834,74.669L2.834,94.73c0,1.56,1.274,2.834,2.833,2.834l5.894,0"/>
</g>
</g></g><g partID='854154190'><g transform='translate(198.01,18.7358)' ><g xmlns="http://www.w3.org/2000/svg" id="breadboard">
 <g xmlns="http://www.w3.org/2000/svg">
  <g xmlns="http://www.w3.org/2000/svg" enable-background="new    ">
   <g xmlns="http://www.w3.org/2000/svg">
    <path xmlns="http://www.w3.org/2000/svg" fill="#999999" d="M35.643,43.516c-7.668,0,-13.887,5.385,-13.887,12.025c0,6.648,6.219,12.027,13.887,12.027c7.667,0,13.886,-5.379,13.886,-12.027C49.529,48.9,43.311,43.516,35.643,43.516"/>
   </g>
  </g>
 </g>
 <g xmlns="http://www.w3.org/2000/svg" id="breadboard">
  <circle xmlns="http://www.w3.org/2000/svg" id="connector0pin" r="1.98" fill="none" cx="32.029" cy="78.176"/>
  <circle xmlns="http://www.w3.org/2000/svg" id="connector1pin" r="1.98" fill="none" cx="39.255" cy="78.176"/>
 </g>
 <path xmlns="http://www.w3.org/2000/svg" fill-opacity="0.2" d="M49.529,55.291c0,6.648,-6.219,12.027,-13.886,12.027c-7.668,0,-13.887,-5.379,-13.887,-12.027l0,0.25c0,6.648,6.219,12.027,13.887,12.027c7.667,0,13.886,-5.379,13.886,-12.027L49.529,55.291z"/>
 <g xmlns="http://www.w3.org/2000/svg">
  <path xmlns="http://www.w3.org/2000/svg" fill="#333333" d="M38.019,24.416l1.608,-2.413c0.211,-0.314,0.593,-0.491,0.984,-0.491c0.191,0,0.386,0.043,0.563,0.133l0.504,0.249c0.54,0.273,0.729,0.873,0.415,1.341l-1.601,2.401c1.677,1.229,2.744,3.063,2.744,5.112c0,3.695,-3.465,6.695,-7.731,6.695c-4.266,0,-7.731,-3,-7.731,-6.695c0,-2.031,1.048,-3.852,2.7,-5.081l-1.611,-2.417c-0.315,-0.468,-0.135,-1.076,0.414,-1.341l0.495,-0.257c0.18,-0.086,0.375,-0.128,0.568,-0.128c0.395,0,0.777,0.175,0.989,0.495l1.608,2.414c0.804,-0.245,1.667,-0.379,2.567,-0.379C36.385,24.053,37.231,24.181,38.019,24.416M35.505,7.678c-14.634,0,-26.532,10.312,-26.532,22.977c0,12.673,11.898,22.986,26.532,22.986c14.626,0,26.532,-10.313,26.532,-22.986C62.037,17.989,50.131,7.678,35.505,7.678M35.505,56.75c-16.614,0,-30.132,-11.699,-30.132,-26.095c0,-14.388,13.518,-26.095,30.132,-26.095c16.614,0,30.132,11.707,30.132,26.095C65.637,45.051,52.119,56.75,35.505,56.75M35.505,1.317c-18.711,0,-33.876,13.133,-33.876,29.337C1.629,46.859,16.794,60,35.505,60c18.712,0,33.876,-13.141,33.876,-29.345C69.381,14.451,54.217,1.317,35.505,1.317"/>
  <path xmlns="http://www.w3.org/2000/svg" fill="#B3B3B3" d="M35.505,53.641c-14.634,0,-26.532,-10.313,-26.532,-22.986c0,-12.666,11.898,-22.977,26.532,-22.977c14.626,0,26.532,10.312,26.532,22.977C62.037,43.328,50.131,53.641,35.505,53.641zM35.505,6.469c-15.399,0,-27.936,10.85,-27.936,24.186c0,13.343,12.537,24.193,27.936,24.193c15.399,0,27.937,-10.85,27.937,-24.193C63.441,17.319,50.904,6.469,35.505,6.469M35.505,55.541c-15.84,0,-28.737,-11.16,-28.737,-24.886c0,-13.718,12.897,-24.879,28.737,-24.879c15.841,0,28.737,11.162,28.737,24.879C64.242,44.381,51.346,55.541,35.505,55.541M35.505,4.56c-16.614,0,-30.132,11.707,-30.132,26.095c0,14.396,13.518,26.095,30.132,26.095c16.614,0,30.132,-11.699,30.132,-26.095C65.637,16.267,52.119,4.56,35.505,4.56z"/>
  <path xmlns="http://www.w3.org/2000/svg" fill="#BCBCBC" d="M35.505,54.848c-15.399,0,-27.936,-10.85,-27.936,-24.193c0,-13.336,12.537,-24.186,27.936,-24.186c15.399,0,27.937,10.85,27.937,24.186C63.441,43.998,50.904,54.848,35.505,54.848M35.505,5.775c-15.84,0,-28.737,11.162,-28.737,24.879c0,13.726,12.897,24.886,28.737,24.886c15.841,0,28.737,-11.16,28.737,-24.886C64.242,16.937,51.346,5.775,35.505,5.775"/>
  <path xmlns="http://www.w3.org/2000/svg" fill="#424242" d="M40.612,21.512c-0.392,0,-0.773,0.177,-0.984,0.491l-1.608,2.413c0.914,0.273,1.751,0.69,2.474,1.22l1.601,-2.401c0.314,-0.468,0.125,-1.068,-0.415,-1.341l-0.504,-0.249C40.998,21.555,40.803,21.512,40.612,21.512"/>
  <path xmlns="http://www.w3.org/2000/svg" fill="#424242" d="M30.34,21.524c-0.192,0,-0.388,0.042,-0.568,0.128l-0.495,0.257c-0.549,0.265,-0.729,0.873,-0.414,1.341l1.611,2.417c0.719,-0.535,1.552,-0.957,2.464,-1.235l-1.608,-2.414C31.117,21.699,30.735,21.524,30.34,21.524"/>
  <path xmlns="http://www.w3.org/2000/svg" fill="#333333" d="M35.505,36.75c-3.825,0,-6.93,-2.682,-6.93,-6.002c0,-3.312,3.105,-6.001,6.93,-6.001c3.826,0,6.931,2.689,6.931,6.001C42.436,34.068,39.331,36.75,35.505,36.75M35.505,24.053c-0.9,0,-1.764,0.134,-2.567,0.379c-0.912,0.279,-1.745,0.701,-2.464,1.235c-1.652,1.229,-2.7,3.05,-2.7,5.081c0,3.695,3.465,6.695,7.731,6.695c4.266,0,7.731,-3,7.731,-6.695c0,-2.049,-1.066,-3.884,-2.744,-5.112c-0.723,-0.53,-1.56,-0.947,-2.474,-1.22C37.231,24.181,36.385,24.053,35.505,24.053"/>
  <path xmlns="http://www.w3.org/2000/svg" d="M35.505,36.243c-3.096,0,-5.661,-1.917,-6.228,-4.451c-0.081,-0.374,0.198,-0.74,0.639,-0.811c0.054,-0.01,0.107,-0.014,0.159,-0.014c0.371,0,0.698,0.231,0.777,0.56c0.414,1.894,2.34,3.328,4.653,3.328c1.701,0,3.186,-0.772,4.023,-1.941c0.152,-0.213,0.416,-0.331,0.685,-0.331c0.145,0,0.291,0.034,0.423,0.104c0.378,0.203,0.485,0.631,0.252,0.959C39.771,35.207,37.773,36.243,35.505,36.243M31.896,29.141c-0.362,0,-0.646,-0.097,-0.792,-0.302c-0.396,-0.53,0.225,-1.535,1.404,-2.221c0.682,-0.396,1.407,-0.601,1.971,-0.601c0.411,0,0.736,0.108,0.899,0.328c0.387,0.522,-0.306,1.474,-1.494,2.159C33.175,28.917,32.445,29.141,31.896,29.141M35.505,24.747c-3.825,0,-6.93,2.689,-6.93,6.001c0,3.32,3.105,6.002,6.93,6.002c3.826,0,6.931,-2.682,6.931,-6.002C42.436,27.436,39.331,24.747,35.505,24.747"/>
  <path xmlns="http://www.w3.org/2000/svg" fill="#303030" d="M30.075,30.968c-0.052,0,-0.105,0.004,-0.159,0.014c-0.441,0.07,-0.72,0.437,-0.639,0.811c0.567,2.534,3.132,4.451,6.228,4.451c2.268,0,4.266,-1.037,5.382,-2.595c0.233,-0.328,0.126,-0.756,-0.252,-0.959c-0.132,-0.07,-0.278,-0.104,-0.423,-0.104c-0.269,0,-0.532,0.117,-0.685,0.331c-0.837,1.169,-2.322,1.941,-4.023,1.941c-2.313,0,-4.239,-1.435,-4.653,-3.328C30.773,31.2,30.446,30.968,30.075,30.968"/>
  <path xmlns="http://www.w3.org/2000/svg" fill="#8F8F8F" d="M34.479,26.017c-0.564,0,-1.289,0.204,-1.971,0.601c-1.179,0.686,-1.8,1.691,-1.404,2.221c0.146,0.205,0.43,0.302,0.792,0.302c0.549,0,1.279,-0.224,1.989,-0.637c1.188,-0.686,1.881,-1.637,1.494,-2.159C35.216,26.125,34.89,26.017,34.479,26.017"/>
  <path xmlns="http://www.w3.org/2000/svg" fill="#1E1E1E" d="M52.768,0L18.234,0C10.305,3.344,3.861,8.924,0,15.799l0,29.906c3.861,6.867,10.305,12.447,18.234,15.799l34.534,0c7.938,-3.352,14.381,-8.932,18.242,-15.799L71.01,15.799C67.148,8.924,60.705,3.344,52.768,0zM61.416,7.444c0.648,0,1.16,0.452,1.16,1.013c0,0.553,-0.512,1.005,-1.16,1.005c-0.639,0,-1.16,-0.452,-1.16,-1.005C60.256,7.896,60.777,7.444,61.416,7.444zM9.594,7.444c0.639,0,1.161,0.452,1.161,1.013c0,0.553,-0.522,1.005,-1.161,1.005c-0.648,0,-1.17,-0.452,-1.17,-1.005C8.424,7.896,8.946,7.444,9.594,7.444zM9.594,54.35c-0.648,0,-1.17,-0.451,-1.17,-1.014c0,-0.553,0.522,-1.006,1.17,-1.006c0.639,0,1.161,0.453,1.161,1.006C10.755,53.898,10.233,54.35,9.594,54.35zM61.416,54.35c-0.639,0,-1.16,-0.451,-1.16,-1.014c0,-0.553,0.521,-1.006,1.16,-1.006c0.648,0,1.16,0.453,1.16,1.006C62.576,53.898,62.064,54.35,61.416,54.35zM35.505,60C16.794,60,1.629,46.859,1.629,30.655c0,-16.204,15.165,-29.337,33.876,-29.337c18.712,0,33.876,13.133,33.876,29.337C69.381,46.859,54.217,60,35.505,60z"/>
 </g>
 <g xmlns="http://www.w3.org/2000/svg">
  <path xmlns="http://www.w3.org/2000/svg" d="M32.029,80.17c-0.829,0,-1.5,-0.672,-1.5,-1.5l0,-2.635c0,-0.828,0.671,-1.5,1.5,-1.5s1.5,0.672,1.5,1.5l0,2.635C33.529,79.498,32.857,80.17,32.029,80.17z"/>
 </g>
 <g xmlns="http://www.w3.org/2000/svg">
  <path xmlns="http://www.w3.org/2000/svg" fill="#FF0000" d="M39.256,80.17c-0.828,0,-1.5,-0.672,-1.5,-1.5l0,-2.635c0,-0.828,0.672,-1.5,1.5,-1.5s1.5,0.672,1.5,1.5l0,2.635C40.756,79.498,40.084,80.17,39.256,80.17z"/>
 </g>
 <rect xmlns="http://www.w3.org/2000/svg" x="27.143" y="65.674" width="17" height="0.277" fill="#533E29"/>
 <path xmlns="http://www.w3.org/2000/svg" fill="#A67C52" d="M27.143,61.705l0,3.969l17,0l0,-3.969L27.143,61.705zM32.029,65.045c-0.659,0,-1.193,-0.508,-1.193,-1.133c0,-0.629,0.534,-1.137,1.193,-1.137s1.193,0.508,1.193,1.137C33.222,64.537,32.688,65.045,32.029,65.045zM39.256,65.045c-0.658,0,-1.193,-0.508,-1.193,-1.133c0,-0.629,0.535,-1.137,1.193,-1.137s1.193,0.508,1.193,1.137C40.45,64.537,39.915,65.045,39.256,65.045z"/>
 <path xmlns="http://www.w3.org/2000/svg" opacity="0.2" fill="#FFFFFF" d="M0,16.353C3.861,9.478,10.305,3.897,18.234,0.553l34.534,0c7.938,3.344,14.381,8.924,18.242,15.799l0,-0.553C67.148,8.924,60.705,3.344,52.768,0L18.234,0C10.305,3.344,3.861,8.924,0,15.799L0,16.353z"/>
 <path xmlns="http://www.w3.org/2000/svg" d="M71.01,46.83c-3.861,6.867,-10.305,12.447,-18.242,15.799L18.234,62.629C10.305,59.277,3.861,53.697,0,46.83l0,-1.125c3.861,6.867,10.305,12.447,18.234,15.799l34.534,0c7.938,-3.352,14.381,-8.932,18.242,-15.799L71.01,46.83z"/>
 <path xmlns="http://www.w3.org/2000/svg" d="M69.381,31.033c0,16.204,-15.164,29.346,-33.876,29.346c-18.711,0,-33.876,-13.143,-33.876,-29.346l0,-0.378C1.629,46.859,16.794,60,35.505,60c18.712,0,33.876,-13.141,33.876,-29.345L69.381,31.033z"/>
 <path xmlns="http://www.w3.org/2000/svg" opacity="0.2" fill="#FFFFFF" d="M5.373,30.968c0,-14.388,13.518,-26.095,30.132,-26.095c16.614,0,30.132,11.707,30.132,26.095l0,-0.313c0,-14.388,-13.518,-26.095,-30.132,-26.095c-16.614,0,-30.132,11.707,-30.132,26.095L5.373,30.968z"/>
 <path xmlns="http://www.w3.org/2000/svg" opacity="0.2" fill="#FFFFFF" d="M8.973,30.155c0,12.673,11.898,22.986,26.532,22.986c14.626,0,26.532,-10.313,26.532,-22.986l0,0.5c0,12.673,-11.906,22.986,-26.532,22.986c-14.634,0,-26.532,-10.313,-26.532,-22.986L8.973,30.155z"/>
 <path xmlns="http://www.w3.org/2000/svg" opacity="0.2" d="M62.037,31.153c0,-12.666,-11.906,-22.977,-26.532,-22.977c-14.634,0,-26.532,10.312,-26.532,22.977l0,-0.499c0,-12.666,11.898,-22.977,26.532,-22.977c14.626,0,26.532,10.312,26.532,22.977"/>
 <path xmlns="http://www.w3.org/2000/svg" fill-opacity="0.2" d="M65.637,31.215c0,14.396,-13.518,26.095,-30.132,26.095c-16.614,0,-30.132,-11.699,-30.132,-26.095l0,-0.561c0,14.396,13.518,26.095,30.132,26.095c16.614,0,30.132,-11.699,30.132,-26.095L65.637,31.215z"/>
 <path xmlns="http://www.w3.org/2000/svg" fill="#CCCCCC" d="M32.029,62.787c-0.691,0,-1.252,0.561,-1.252,1.252s0.561,1.252,1.252,1.252s1.252,-0.561,1.252,-1.252S32.72,62.787,32.029,62.787zM32.029,65.232c-0.659,0,-1.193,-0.535,-1.193,-1.193s0.534,-1.193,1.193,-1.193s1.193,0.535,1.193,1.193S32.688,65.232,32.029,65.232z"/>
 <path xmlns="http://www.w3.org/2000/svg" fill="#CCCCCC" d="M39.256,62.787c-0.691,0,-1.253,0.561,-1.253,1.252s0.562,1.252,1.253,1.252s1.253,-0.561,1.253,-1.252S39.948,62.787,39.256,62.787zM39.256,65.232c-0.658,0,-1.193,-0.535,-1.193,-1.193s0.535,-1.193,1.193,-1.193s1.193,0.535,1.193,1.193S39.915,65.232,39.256,65.232z"/>
 <path xmlns="http://www.w3.org/2000/svg" d="M33.222,64.039c-0.001,-0.658,-0.535,-1.193,-1.193,-1.193s-1.192,0.535,-1.193,1.193l-0.007,0l0,11.998l2.4,0L33.229,64.039L33.222,64.039z"/>
 <path xmlns="http://www.w3.org/2000/svg" fill="#FF0000" d="M40.45,64.039c-0.001,-0.658,-0.535,-1.193,-1.193,-1.193s-1.192,0.535,-1.193,1.193l-0.007,0l0,11.998l2.4,0L40.457,64.039L40.45,64.039z"/>
 <polygon xmlns="http://www.w3.org/2000/svg" points="46.34,63.207,24.947,63.207,24.421,62.629,46.865,62.629" opacity="0.2"/>
</g>
</g></g><g partID='854154220'><line stroke-linecap='round' stroke='#000000' x1='173.504' y1='166.086' x2='230.039' y2='96.912' stroke-width='3.2' /><line stroke-linecap='round' stroke='#404040' x1='173.504' y1='166.086' x2='230.039' y2='96.912' stroke-width='1.6' /></g><g partID='854154250'><line stroke-linecap='round' stroke='#8c0000' x1='196.882' y1='171.93' x2='237.265' y2='96.912' stroke-width='3.2' /><line stroke-linecap='round' stroke='#cc1414' x1='196.882' y1='171.93' x2='237.265' y2='96.912' stroke-width='1.6' /></g></svg>