<?xml version='1.0' encoding='UTF-8' standalone='no'?>
<!-- Created with Fritzing (http://www.fritzing.org/) -->
<svg xmlns:svg='http://www.w3.org/2000/svg' xmlns='http://www.w3.org/2000/svg' version='1.2' baseProfile='tiny' x='0in' y='0in' width='1.01049in' height='0.857585in' viewBox='0 0 72.7554 61.7461' >
<g partID='57440'><g transform='translate(22.752,17.146)' ><g transform='matrix(0,1,-1,0,0,0)'  ><g xmlns="http://www.w3.org/2000/svg" id="schematic">
<line y2="22.176" stroke-linecap="round" x1="11.15" x2="11.15" class="other" xmlns="http://www.w3.org/2000/svg" stroke-width="1.152" y1="0.576" stroke="#000000"/>
<line y2="14.976" stroke-linecap="round" x1="14.75" x2="14.75" class="other" xmlns="http://www.w3.org/2000/svg" stroke-width="1.152" y1="7.776" stroke="#000000"/>
<line y2="22.176" stroke-linecap="round" x1="18.3501" x2="18.3501" class="other" xmlns="http://www.w3.org/2000/svg" stroke-width="1.152" y1="0.576" stroke="#000000"/>
<line y2="14.976" stroke-linecap="round" x1="21.9501" x2="21.9501" class="other" xmlns="http://www.w3.org/2000/svg" stroke-width="1.152" y1="7.776" stroke="#000000"/>
<line y2="11.376" stroke-linecap="round" x1="7.55002" x2="10.43" class="other" xmlns="http://www.w3.org/2000/svg" stroke-width="0.432002" y1="11.376" stroke="#000000"/>
<line y2="11.376" stroke-linecap="round" connectorname="-" x1="29.1502" x2="21.9501" class="pin" xmlns="http://www.w3.org/2000/svg" stroke-width="0.700001" id="connector0pin" y1="11.376" stroke="#787878"/>
<g y="11.376" fill="none" width="0.000283466" height="0.000283465" class="terminal" xmlns="http://www.w3.org/2000/svg" stroke-width="0" id="connector0terminal" x="29.1502" stroke="none"/>
<text y="10.326" fill="#8c8c8c" font-family="'Droid Sans'" class="text" xmlns="http://www.w3.org/2000/svg" stroke-width="0" text-anchor="middle" font-size="2.50001" stroke="none" x="25.5501">1</text>
<line y2="11.376" stroke-linecap="round" connectorname="+" x1="0.350001" x2="7.55002" class="pin" xmlns="http://www.w3.org/2000/svg" stroke-width="0.700001" id="connector1pin" y1="11.376" stroke="#787878"/>
<g y="11.376" fill="none" width="0.000283466" height="0.000283465" class="terminal" xmlns="http://www.w3.org/2000/svg" stroke-width="0" id="connector1terminal" x="0.350001" stroke="none"/>
<text y="10.326" fill="#8c8c8c" font-family="'Droid Sans'" class="text" xmlns="http://www.w3.org/2000/svg" stroke-width="0" text-anchor="middle" font-size="2.50001" stroke="none" x="3.95001">2</text>
</g>
</g></g></g><g partID='57470'><g transform='translate(25.4255,0)' ><g xmlns="http://www.w3.org/2000/svg" id="schematic">
<line y2="0.216" stroke-linecap="round" x1="7.55002" x2="8.63003" class="other" xmlns="http://www.w3.org/2000/svg" stroke-width="0.432002" y1="3.096" stroke="#000000"/>
<line y2="5.976" stroke-linecap="round" x1="8.63003" x2="10.43" class="other" xmlns="http://www.w3.org/2000/svg" stroke-width="0.432002" y1="0.216" stroke="#000000"/>
<line y2="0.216" stroke-linecap="round" x1="10.43" x2="12.23" class="other" xmlns="http://www.w3.org/2000/svg" stroke-width="0.432002" y1="5.976" stroke="#000000"/>
<line y2="5.976" stroke-linecap="round" x1="12.23" x2="14.03" class="other" xmlns="http://www.w3.org/2000/svg" stroke-width="0.432002" y1="0.216" stroke="#000000"/>
<line y2="0.216" stroke-linecap="round" x1="14.03" x2="15.8301" class="other" xmlns="http://www.w3.org/2000/svg" stroke-width="0.432002" y1="5.976" stroke="#000000"/>
<line y2="5.976" stroke-linecap="round" x1="15.8301" x2="17.6301" class="other" xmlns="http://www.w3.org/2000/svg" stroke-width="0.432002" y1="0.216" stroke="#000000"/>
<line y2="0.216" stroke-linecap="round" x1="17.6301" x2="19.4301" class="other" xmlns="http://www.w3.org/2000/svg" stroke-width="0.432002" y1="5.976" stroke="#000000"/>
<line y2="5.976" stroke-linecap="round" x1="19.4301" x2="21.2301" class="other" xmlns="http://www.w3.org/2000/svg" stroke-width="0.432002" y1="0.216" stroke="#000000"/>
<line y2="3.096" stroke-linecap="round" x1="21.2301" x2="21.9501" class="other" xmlns="http://www.w3.org/2000/svg" stroke-width="0.432002" y1="5.976" stroke="#000000"/>
<line y2="3.096" stroke-linecap="round" connectorname="2" x1="29.1502" x2="21.9501" class="pin" xmlns="http://www.w3.org/2000/svg" stroke-width="0.700001" id="connector1pin" y1="3.096" stroke="#787878"/>
<g y="3.096" fill="none" width="0.000283466" height="0.000283465" class="terminal" xmlns="http://www.w3.org/2000/svg" stroke-width="0" id="connector1terminal" x="29.1502" stroke="none"/>
<text y="2.046" fill="#8c8c8c" font-family="'Droid Sans'" class="text" xmlns="http://www.w3.org/2000/svg" stroke-width="0" text-anchor="middle" font-size="2.50001" stroke="none" x="25.5501">2</text>
<line y2="3.096" stroke-linecap="round" connectorname="1" x1="0.350001" x2="7.55002" class="pin" xmlns="http://www.w3.org/2000/svg" stroke-width="0.700001" id="connector0pin" y1="3.096" stroke="#787878"/>
<g y="3.096" fill="none" width="0.000283466" height="0.000283465" class="terminal" xmlns="http://www.w3.org/2000/svg" stroke-width="0" id="connector0terminal" x="0.350001" stroke="none"/>
<text y="2.046" fill="#8c8c8c" font-family="'Droid Sans'" class="text" xmlns="http://www.w3.org/2000/svg" stroke-width="0" text-anchor="middle" font-size="2.50001" stroke="none" x="3.95001">1</text>
</g>
</g></g><g partID='57500'><g transform='translate(59.0754,24.4801)' ><g id="schematic">
<g>
<path d="M13.5,14.966L9.9,14.966c-0.193,0,-0.35,-0.156,-0.35,-0.35s0.156,-0.35,0.35,-0.35L13.5,14.266c0.193,0,0.35,0.156,0.35,0.35S13.694,14.966,13.5,14.966z"/>
</g>
<g>
<path d="M9.9,14.966L6.3,14.966c-0.193,0,-0.35,-0.156,-0.35,-0.35s0.157,-0.35,0.35,-0.35l3.6,0c0.193,0,0.35,0.156,0.35,0.35S10.093,14.966,9.9,14.966z"/>
</g>
<g>
<polygon points="9.9,14.616,6.3,7.416,9.9,7.416,13.5,7.416" fill="#FFFFFF"/>
<path d="M9.9,15.398L5.734,7.066l8.333,0L9.9,15.398zM6.866,7.766L9.9,13.834l3.034,-6.068L6.866,7.766z"/>
</g>
<g>
<path d="M9.9,14.841c-0.124,0,-0.225,-0.101,-0.225,-0.225l0,-7.2c0,-0.124,0.101,-0.225,0.225,-0.225s0.225,0.101,0.225,0.225l0,7.2C10.124,14.74,10.024,14.841,9.9,14.841z"/>
</g>
<g>
<path d="M1.8,12.141c-0.058,0,-0.115,-0.021,-0.159,-0.065c-0.088,-0.088,-0.088,-0.23,0,-0.318l2.34,-2.341c0.088,-0.088,0.23,-0.088,0.318,0s0.088,0.23,0,0.318l-2.34,2.341C1.915,12.12,1.858,12.141,1.8,12.141z"/>
</g>
<g>
<path d="M2.16,15.381c-0.058,0,-0.115,-0.021,-0.159,-0.065c-0.088,-0.088,-0.088,-0.23,0,-0.318l2.34,-2.34c0.088,-0.088,0.23,-0.088,0.318,0s0.088,0.23,0,0.318l-2.34,2.34C2.276,15.359,2.218,15.381,2.16,15.381z"/>
</g>
<g id="connector0pin">
<path fill="#787878" d="M9.9,22.166c-0.193,0,-0.35,-0.156,-0.35,-0.35l0,-7.2c0,-0.193,0.156,-0.35,0.35,-0.35s0.35,0.156,0.35,0.35l0,7.2C10.249,22.01,10.093,22.166,9.9,22.166z"/>
</g>
<g id="connector0terminal">
<rect y="21.816" fill="none" width="0.001" height="0.001" x="9.9"/>
</g>
<g transform="matrix(1, 0, 0, 1, 3.429, 6.4262)">
<g>
<g transform="rotate(270)">
<g>
<g enable-background="new    ">
<path fill="#787878" d="M-11.647,5.54l-0.891,0L-12.538,5.388l0.342,-0.372c0.049,-0.053,0.093,-0.101,0.131,-0.145s0.071,-0.086,0.099,-0.128c0.026,-0.042,0.047,-0.084,0.062,-0.125c0.015,-0.043,0.021,-0.088,0.021,-0.138c0,-0.038,-0.005,-0.072,-0.017,-0.102s-0.027,-0.054,-0.047,-0.075c-0.021,-0.02,-0.045,-0.035,-0.073,-0.046s-0.06,-0.016,-0.094,-0.016c-0.062,0,-0.118,0.013,-0.167,0.038c-0.051,0.024,-0.098,0.057,-0.143,0.096l-0.1,-0.116c0.025,-0.023,0.055,-0.046,0.084,-0.065c0.029,-0.021,0.063,-0.039,0.097,-0.054s0.071,-0.026,0.109,-0.036c0.038,-0.008,0.079,-0.013,0.121,-0.013c0.063,0,0.119,0.009,0.169,0.026c0.051,0.018,0.094,0.043,0.129,0.076c0.035,0.032,0.063,0.072,0.082,0.119c0.019,0.048,0.028,0.101,0.028,0.16c0,0.056,-0.009,0.108,-0.026,0.158c-0.017,0.05,-0.041,0.1,-0.07,0.148c-0.031,0.048,-0.066,0.097,-0.109,0.146c-0.041,0.049,-0.087,0.1,-0.136,0.152L-12.32,5.37l0,0.008l0.673,0L-11.647,5.54z"/>
</g>
</g>
</g>
</g>
</g>
<g id="connector1pin">
<path fill="#787878" d="M9.9,7.766c-0.193,0,-0.35,-0.157,-0.35,-0.35l0,-7.2c0,-0.193,0.156,-0.35,0.35,-0.35s0.35,0.157,0.35,0.35l0,7.2C10.249,7.609,10.093,7.766,9.9,7.766z"/>
</g>
<g id="connector1terminal">
<polygon points="9.9,0.216,9.901,0.216,9.901,0.216" fill="none"/>
</g>
<g transform="matrix(1, 0, 0, 1, 3.429, 1.3462)">
<g>
<g transform="rotate(270)">
<g>
<g enable-background="new    ">
<path fill="#787878" d="M-2.616,5.54l-0.172,0L-2.788,4.648c0,-0.028,0,-0.058,0,-0.09s0.001,-0.063,0.002,-0.095c0.001,-0.032,0.002,-0.063,0.003,-0.092c0.001,-0.028,0.002,-0.054,0.002,-0.076c-0.011,0.012,-0.021,0.021,-0.029,0.03s-0.017,0.017,-0.026,0.024s-0.018,0.016,-0.028,0.025c-0.01,0.008,-0.021,0.019,-0.035,0.03l-0.145,0.118l-0.094,-0.12l0.374,-0.292l0.146,0L-2.618,5.54z"/>
</g>
</g>
</g>
</g>
</g>
<g>
<path d="M0.18,13.536l1.08,-2.521l1.44,1.438L0.18,13.536z"/>
</g>
<g>
<path d="M0.54,16.776l1.08,-2.521l1.438,1.438L0.54,16.776z"/>
</g>
</g>
</g></g><g partID='58440'><line stroke-linecap='round' stroke='#404040' x1='25.7757' y1='3.09614' x2='11.3759' y2='3.09614' stroke-width='0.699998' /></g><g partID='58940'><line stroke-linecap='round' stroke='#404040' x1='11.3759' y1='3.09614' x2='11.3759' y2='17.4961' stroke-width='0.699998' /></g><g partID='59060'><line stroke-linecap='round' stroke='#404040' x1='68.9759' y1='3.09614' x2='54.5759' y2='3.09614' stroke-width='0.699998' /></g><g partID='58990'><line stroke-linecap='round' stroke='#404040' x1='68.9759' y1='24.6961' x2='68.9759' y2='3.09614' stroke-width='0.699998' /></g><g partID='59200'><line stroke-linecap='round' stroke='#404040' x1='11.3759' y1='60.6961' x2='68.9759' y2='60.6961' stroke-width='0.699998' /></g><g partID='59130'><line stroke-linecap='round' stroke='#404040' x1='11.3759' y1='46.2963' x2='11.3759' y2='60.6961' stroke-width='0.699998' /></g><g partID='59270'><line stroke-linecap='round' stroke='#404040' x1='68.9759' y1='60.6961' x2='68.9759' y2='46.2966' stroke-width='0.699998' /></g></svg>