<?xml version="1.0" encoding="UTF-8" standalone="no"?>
<!-- Generator: Adobe Illustrator 14.0.0, SVG Export Plug-In  -->

<svg
   xmlns:dc="http://purl.org/dc/elements/1.1/"
   xmlns:cc="http://creativecommons.org/ns#"
   xmlns:rdf="http://www.w3.org/1999/02/22-rdf-syntax-ns#"
   xmlns:svg="http://www.w3.org/2000/svg"
   xmlns="http://www.w3.org/2000/svg"
   xmlns:sodipodi="http://sodipodi.sourceforge.net/DTD/sodipodi-0.dtd"
   xmlns:inkscape="http://www.inkscape.org/namespaces/inkscape"
   width="129.12555"
   version="1.2"
   x="0"
   y="0"
   xml:space="preserve"
   height="112.5"
   viewBox="0 0 103.30044 89.999155"
   id="svg2"
   inkscape:version="0.48.5 r10040"
   sodipodi:docname="LEDMatrix3.breadboard.svg"><metadata
     id="metadata111"><rdf:RDF><cc:Work
         rdf:about=""><dc:format>image/svg+xml</dc:format><dc:type
           rdf:resource="http://purl.org/dc/dcmitype/StillImage" /><dc:title /></cc:Work></rdf:RDF></metadata><sodipodi:namedview
     pagecolor="#ffffff"
     bordercolor="#666666"
     borderopacity="1"
     objecttolerance="10"
     gridtolerance="10"
     guidetolerance="10"
     inkscape:pageopacity="0"
     inkscape:pageshadow="2"
     inkscape:window-width="1366"
     inkscape:window-height="704"
     id="namedview109"
     showgrid="false"
     inkscape:zoom="2.7470965"
     inkscape:cx="31.571812"
     inkscape:cy="69.189921"
     inkscape:window-x="0"
     inkscape:window-y="27"
     inkscape:window-maximized="1"
     inkscape:current-layer="breadboard"
     fit-margin-top="0"
     fit-margin-left="0"
     fit-margin-right="0"
     fit-margin-bottom="0" /><desc
     id="desc4"><referenceFile
       id="referenceFile6">LED_Matrix_Kingbright_TX07-11.svg</referenceFile></desc><defs
     id="defs8" /><g
     id="breadboard"
     gorn="0.1"
     transform="translate(0.46220806,38.098332)"><g
       id="g3168"
       transform="matrix(1.7536952,0,0,1.7536952,5.0459189,-38.569688)"><rect
         style="fill:#1a1a1a"
         y="0.26853886"
         x="0.83501661"
         id="rect35"
         height="51.320206"
         width="51.101215" /><ellipse
         style="fill:#e5e5e5;stroke:#999999;stroke-width:0.25"
         transform="translate(-2.0071541,-4.0438243)"
         sodipodi:ry="2.651"
         sodipodi:rx="2.6329999"
         sodipodi:cy="45.965"
         sodipodi:cx="31.59"
         id="ellipse37"
         ry="2.651"
         rx="2.6329999"
         cy="45.965"
         cx="31.59"
         d="m 34.223,45.965 c 0,1.464107 -1.178834,2.651 -2.633,2.651 -1.454166,0 -2.633,-1.186893 -2.633,-2.651 0,-1.464107 1.178834,-2.651 2.633,-2.651 1.454166,0 2.633,1.186893 2.633,2.651 z" /><ellipse
         style="fill:#e5e5e5;stroke:#999999;stroke-width:0.25"
         transform="translate(-1.3031534,-4.0438243)"
         sodipodi:ry="2.651"
         sodipodi:rx="2.632"
         sodipodi:cy="45.965"
         sodipodi:cx="24.57"
         id="ellipse39"
         ry="2.651"
         rx="2.632"
         cy="45.965"
         cx="24.57"
         d="m 27.202,45.965 c 0,1.464107 -1.178387,2.651 -2.632,2.651 -1.453614,0 -2.632,-1.186893 -2.632,-2.651 0,-1.464107 1.178386,-2.651 2.632,-2.651 1.453613,0 2.632,1.186893 2.632,2.651 z" /><ellipse
         style="fill:#e5e5e5;stroke:#999999;stroke-width:0.25"
         transform="translate(-0.5991528,-4.0438243)"
         sodipodi:ry="2.651"
         sodipodi:rx="2.6329999"
         sodipodi:cy="45.965"
         sodipodi:cx="17.549999"
         id="ellipse41"
         ry="2.651"
         rx="2.6329999"
         cy="45.965"
         cx="17.549999"
         d="m 20.182999,45.965 c 0,1.464107 -1.178834,2.651 -2.633,2.651 -1.454165,0 -2.633,-1.186893 -2.633,-2.651 0,-1.464107 1.178835,-2.651 2.633,-2.651 1.454166,0 2.633,1.186893 2.633,2.651 z" /><ellipse
         style="fill:#e5e5e5;stroke:#999999;stroke-width:0.25"
         transform="translate(0.1048469,-4.0438243)"
         sodipodi:ry="2.651"
         sodipodi:rx="2.6329999"
         sodipodi:cy="45.965"
         sodipodi:cx="10.53"
         id="ellipse43"
         ry="2.651"
         rx="2.6329999"
         cy="45.965"
         cx="10.53"
         d="m 13.163,45.965 c 0,1.464107 -1.178835,2.651 -2.633,2.651 -1.454166,0 -2.6330002,-1.186893 -2.6330002,-2.651 0,-1.464107 1.1788342,-2.651 2.6330002,-2.651 1.454165,0 2.633,1.186893 2.633,2.651 z" /><ellipse
         style="fill:#e5e5e5;stroke:#999999;stroke-width:0.25"
         transform="translate(0.80884688,-4.0438243)"
         sodipodi:ry="2.651"
         sodipodi:rx="2.6329999"
         sodipodi:cy="45.965"
         sodipodi:cx="3.51"
         id="ellipse45"
         ry="2.651"
         rx="2.6329999"
         cy="45.965"
         cx="3.51"
         d="m 6.1429999,45.965 c 0,1.464107 -1.1788342,2.651 -2.6329999,2.651 -1.4541657,0 -2.63299991,-1.186893 -2.63299991,-2.651 0,-1.464107 1.17883421,-2.651 2.63299991,-2.651 1.4541657,0 2.6329999,1.186893 2.6329999,2.651 z" /><ellipse
         style="fill:#e5e5e5;stroke:#999999;stroke-width:0.25"
         transform="translate(-2.0071541,-3.3258251)"
         sodipodi:ry="2.651"
         sodipodi:rx="2.6329999"
         sodipodi:cy="38.894001"
         sodipodi:cx="31.59"
         id="ellipse47"
         ry="2.651"
         rx="2.6329999"
         cy="38.894001"
         cx="31.59"
         d="m 34.223,38.894001 c 0,1.464107 -1.178834,2.651 -2.633,2.651 -1.454166,0 -2.633,-1.186893 -2.633,-2.651 0,-1.464107 1.178834,-2.651 2.633,-2.651 1.454166,0 2.633,1.186893 2.633,2.651 z" /><ellipse
         style="fill:#e5e5e5;stroke:#999999;stroke-width:0.25"
         transform="translate(-1.3031534,-3.3258251)"
         sodipodi:ry="2.651"
         sodipodi:rx="2.632"
         sodipodi:cy="38.894001"
         sodipodi:cx="24.57"
         id="ellipse49"
         ry="2.651"
         rx="2.632"
         cy="38.894001"
         cx="24.57"
         d="m 27.202,38.894001 c 0,1.464107 -1.178387,2.651 -2.632,2.651 -1.453614,0 -2.632,-1.186893 -2.632,-2.651 0,-1.464107 1.178386,-2.651 2.632,-2.651 1.453613,0 2.632,1.186893 2.632,2.651 z" /><ellipse
         style="fill:#e5e5e5;stroke:#999999;stroke-width:0.25"
         transform="translate(-0.5991528,-3.3258251)"
         sodipodi:ry="2.651"
         sodipodi:rx="2.6329999"
         sodipodi:cy="38.894001"
         sodipodi:cx="17.549999"
         id="ellipse51"
         ry="2.651"
         rx="2.6329999"
         cy="38.894001"
         cx="17.549999"
         d="m 20.182999,38.894001 c 0,1.464107 -1.178834,2.651 -2.633,2.651 -1.454165,0 -2.633,-1.186893 -2.633,-2.651 0,-1.464107 1.178835,-2.651 2.633,-2.651 1.454166,0 2.633,1.186893 2.633,2.651 z" /><ellipse
         style="fill:#e5e5e5;stroke:#999999;stroke-width:0.25"
         transform="translate(0.80884688,-3.3258251)"
         sodipodi:ry="2.651"
         sodipodi:rx="2.6329999"
         sodipodi:cy="38.894001"
         sodipodi:cx="3.51"
         id="ellipse55"
         ry="2.651"
         rx="2.6329999"
         cy="38.894001"
         cx="3.51"
         d="m 6.1429999,38.894001 c 0,1.464107 -1.1788342,2.651 -2.6329999,2.651 -1.4541657,0 -2.63299991,-1.186893 -2.63299991,-2.651 0,-1.464107 1.17883421,-2.651 2.63299991,-2.651 1.4541657,0 2.6329999,1.186893 2.6329999,2.651 z" /><ellipse
         style="fill:#e5e5e5;stroke:#999999;stroke-width:0.25"
         transform="translate(-2.0071541,-2.6068232)"
         sodipodi:ry="2.652"
         sodipodi:rx="2.6329999"
         sodipodi:cy="31.820999"
         sodipodi:cx="31.59"
         id="ellipse57"
         ry="2.652"
         rx="2.6329999"
         cy="31.820999"
         cx="31.59"
         d="m 34.223,31.820999 c 0,1.464659 -1.178834,2.652 -2.633,2.652 -1.454166,0 -2.633,-1.187341 -2.633,-2.652 0,-1.464659 1.178834,-2.652 2.633,-2.652 1.454166,0 2.633,1.187341 2.633,2.652 z" /><ellipse
         style="fill:#e5e5e5;stroke:#999999;stroke-width:0.25"
         transform="translate(-1.3031534,-2.6068232)"
         sodipodi:ry="2.652"
         sodipodi:rx="2.632"
         sodipodi:cy="31.820999"
         sodipodi:cx="24.57"
         id="ellipse59"
         ry="2.652"
         rx="2.632"
         cy="31.820999"
         cx="24.57"
         d="m 27.202,31.820999 c 0,1.464659 -1.178387,2.652 -2.632,2.652 -1.453614,0 -2.632,-1.187341 -2.632,-2.652 0,-1.464659 1.178386,-2.652 2.632,-2.652 1.453613,0 2.632,1.187341 2.632,2.652 z" /><ellipse
         style="fill:#e5e5e5;stroke:#999999;stroke-width:0.25"
         transform="translate(-0.5991528,-2.6068232)"
         sodipodi:ry="2.652"
         sodipodi:rx="2.6329999"
         sodipodi:cy="31.820999"
         sodipodi:cx="17.549999"
         id="ellipse61"
         ry="2.652"
         rx="2.6329999"
         cy="31.820999"
         cx="17.549999"
         d="m 20.182999,31.820999 c 0,1.464659 -1.178834,2.652 -2.633,2.652 -1.454165,0 -2.633,-1.187341 -2.633,-2.652 0,-1.464659 1.178835,-2.652 2.633,-2.652 1.454166,0 2.633,1.187341 2.633,2.652 z" /><ellipse
         style="fill:#e5e5e5;stroke:#999999;stroke-width:0.25"
         transform="translate(0.80884688,-2.6068232)"
         sodipodi:ry="2.652"
         sodipodi:rx="2.6329999"
         sodipodi:cy="31.820999"
         sodipodi:cx="3.51"
         id="ellipse65"
         ry="2.652"
         rx="2.6329999"
         cy="31.820999"
         cx="3.51"
         d="m 6.1429999,31.820999 c 0,1.464659 -1.1788342,2.652 -2.6329999,2.652 -1.4541657,0 -2.63299991,-1.187341 -2.63299991,-2.652 0,-1.464659 1.17883421,-2.652 2.63299991,-2.652 1.4541657,0 2.6329999,1.187341 2.6329999,2.652 z" /><ellipse
         style="fill:#e5e5e5;stroke:#999999;stroke-width:0.25"
         transform="translate(-2.0071541,-1.8898239)"
         sodipodi:ry="2.652"
         sodipodi:rx="2.6329999"
         sodipodi:cy="24.75"
         sodipodi:cx="31.59"
         id="ellipse67"
         ry="2.652"
         rx="2.6329999"
         cy="24.75"
         cx="31.59"
         d="m 34.223,24.75 c 0,1.464659 -1.178834,2.652 -2.633,2.652 -1.454166,0 -2.633,-1.187341 -2.633,-2.652 0,-1.464659 1.178834,-2.652 2.633,-2.652 1.454166,0 2.633,1.187341 2.633,2.652 z" /><ellipse
         style="fill:#e5e5e5;stroke:#999999;stroke-width:0.25"
         transform="translate(-1.3031534,-1.8898239)"
         sodipodi:ry="2.652"
         sodipodi:rx="2.632"
         sodipodi:cy="24.75"
         sodipodi:cx="24.57"
         id="ellipse69"
         ry="2.652"
         rx="2.632"
         cy="24.75"
         cx="24.57"
         d="m 27.202,24.75 c 0,1.464659 -1.178387,2.652 -2.632,2.652 -1.453614,0 -2.632,-1.187341 -2.632,-2.652 0,-1.464659 1.178386,-2.652 2.632,-2.652 1.453613,0 2.632,1.187341 2.632,2.652 z" /><ellipse
         style="fill:#e5e5e5;stroke:#999999;stroke-width:0.25"
         transform="translate(0.80884688,-1.8898239)"
         sodipodi:ry="2.652"
         sodipodi:rx="2.6329999"
         sodipodi:cy="24.75"
         sodipodi:cx="3.51"
         id="ellipse75"
         ry="2.652"
         rx="2.6329999"
         cy="24.75"
         cx="3.51"
         d="m 6.1429999,24.75 c 0,1.464659 -1.1788342,2.652 -2.6329999,2.652 -1.4541657,0 -2.63299991,-1.187341 -2.63299991,-2.652 0,-1.464659 1.17883421,-2.652 2.63299991,-2.652 1.4541657,0 2.6329999,1.187341 2.6329999,2.652 z" /><ellipse
         style="fill:#e5e5e5;stroke:#999999;stroke-width:0.25"
         transform="translate(-2.0071541,-1.1728247)"
         sodipodi:ry="2.652"
         sodipodi:rx="2.6329999"
         sodipodi:cy="17.679001"
         sodipodi:cx="31.59"
         id="ellipse77"
         ry="2.652"
         rx="2.6329999"
         cy="17.679001"
         cx="31.59"
         d="m 34.223,17.679001 c 0,1.464659 -1.178834,2.652 -2.633,2.652 -1.454166,0 -2.633,-1.187341 -2.633,-2.652 0,-1.464659 1.178834,-2.652 2.633,-2.652 1.454166,0 2.633,1.187341 2.633,2.652 z" /><ellipse
         style="fill:#e5e5e5;stroke:#999999;stroke-width:0.25"
         transform="translate(-1.3031534,-1.1728247)"
         sodipodi:ry="2.652"
         sodipodi:rx="2.632"
         sodipodi:cy="17.679001"
         sodipodi:cx="24.57"
         id="ellipse79"
         ry="2.652"
         rx="2.632"
         cy="17.679001"
         cx="24.57"
         d="m 27.202,17.679001 c 0,1.464659 -1.178387,2.652 -2.632,2.652 -1.453614,0 -2.632,-1.187341 -2.632,-2.652 0,-1.464659 1.178386,-2.652 2.632,-2.652 1.453613,0 2.632,1.187341 2.632,2.652 z" /><ellipse
         style="fill:#e5e5e5;stroke:#999999;stroke-width:0.25"
         transform="translate(-0.5991528,-1.1728247)"
         sodipodi:ry="2.652"
         sodipodi:rx="2.6329999"
         sodipodi:cy="17.679001"
         sodipodi:cx="17.549999"
         id="ellipse81"
         ry="2.652"
         rx="2.6329999"
         cy="17.679001"
         cx="17.549999"
         d="m 20.182999,17.679001 c 0,1.464659 -1.178834,2.652 -2.633,2.652 -1.454165,0 -2.633,-1.187341 -2.633,-2.652 0,-1.464659 1.178835,-2.652 2.633,-2.652 1.454166,0 2.633,1.187341 2.633,2.652 z" /><ellipse
         style="fill:#e5e5e5;stroke:#999999;stroke-width:0.25"
         transform="translate(0.80884688,-1.1728247)"
         sodipodi:ry="2.652"
         sodipodi:rx="2.6329999"
         sodipodi:cy="17.679001"
         sodipodi:cx="3.51"
         id="ellipse85"
         ry="2.652"
         rx="2.6329999"
         cy="17.679001"
         cx="3.51"
         d="m 6.1429999,17.679001 c 0,1.464659 -1.1788342,2.652 -2.6329999,2.652 -1.4541657,0 -2.63299991,-1.187341 -2.63299991,-2.652 0,-1.464659 1.17883421,-2.652 2.63299991,-2.652 1.4541657,0 2.6329999,1.187341 2.6329999,2.652 z" /><ellipse
         style="fill:#e5e5e5;stroke:#999999;stroke-width:0.25"
         transform="translate(-2.0071541,-0.45582349)"
         sodipodi:ry="2.652"
         sodipodi:rx="2.6329999"
         sodipodi:cy="10.608"
         sodipodi:cx="31.59"
         id="ellipse87"
         ry="2.652"
         rx="2.6329999"
         cy="10.608"
         cx="31.59"
         d="m 34.223,10.608 c 0,1.464659 -1.178834,2.652 -2.633,2.652 -1.454166,0 -2.633,-1.187341 -2.633,-2.652 0,-1.4646593 1.178834,-2.6520001 2.633,-2.6520001 1.454166,0 2.633,1.1873408 2.633,2.6520001 z" /><ellipse
         style="fill:#e5e5e5;stroke:#999999;stroke-width:0.25"
         transform="translate(0.80884688,-0.45582349)"
         sodipodi:ry="2.652"
         sodipodi:rx="2.6329999"
         sodipodi:cy="10.608"
         sodipodi:cx="3.51"
         id="ellipse95"
         ry="2.652"
         rx="2.6329999"
         cy="10.608"
         cx="3.51"
         d="m 6.1429999,10.608 c 0,1.464659 -1.1788342,2.652 -2.6329999,2.652 -1.4541657,0 -2.63299991,-1.187341 -2.63299991,-2.652 0,-1.4646593 1.17883421,-2.6520001 2.63299991,-2.6520001 1.4541657,0 2.6329999,1.1873408 2.6329999,2.6520001 z" /><ellipse
         style="fill:#e5e5e5;stroke:#999999;stroke-width:0.25"
         transform="translate(-2.0071541,0.26217638)"
         sodipodi:ry="2.652"
         sodipodi:rx="2.6329999"
         sodipodi:cy="3.536"
         sodipodi:cx="31.59"
         id="ellipse97"
         ry="2.652"
         rx="2.6329999"
         cy="3.536"
         cx="31.59"
         d="m 34.223,3.536 c 0,1.4646591 -1.178834,2.652 -2.633,2.652 -1.454166,0 -2.633,-1.1873409 -2.633,-2.652 0,-1.4646591 1.178834,-2.65199994 2.633,-2.65199994 1.454166,0 2.633,1.18734084 2.633,2.65199994 z" /><ellipse
         style="fill:#e5e5e5;stroke:#999999;stroke-width:0.25"
         transform="translate(-1.3031534,0.26217638)"
         sodipodi:ry="2.652"
         sodipodi:rx="2.632"
         sodipodi:cy="3.536"
         sodipodi:cx="24.57"
         id="ellipse99"
         ry="2.652"
         rx="2.632"
         cy="3.536"
         cx="24.57"
         d="m 27.202,3.536 c 0,1.4646591 -1.178387,2.652 -2.632,2.652 -1.453614,0 -2.632,-1.1873409 -2.632,-2.652 0,-1.4646591 1.178386,-2.65199994 2.632,-2.65199994 1.453613,0 2.632,1.18734084 2.632,2.65199994 z" /><ellipse
         style="fill:#e5e5e5;stroke:#999999;stroke-width:0.25"
         transform="translate(-0.5991528,0.26217638)"
         sodipodi:ry="2.652"
         sodipodi:rx="2.6329999"
         sodipodi:cy="3.536"
         sodipodi:cx="17.549999"
         id="ellipse101"
         ry="2.652"
         rx="2.6329999"
         cy="3.536"
         cx="17.549999"
         d="m 20.182999,3.536 c 0,1.4646591 -1.178834,2.652 -2.633,2.652 -1.454165,0 -2.633,-1.1873409 -2.633,-2.652 0,-1.4646591 1.178835,-2.65199994 2.633,-2.65199994 1.454166,0 2.633,1.18734084 2.633,2.65199994 z" /><ellipse
         style="fill:#e5e5e5;stroke:#999999;stroke-width:0.25"
         transform="translate(0.1048469,0.26217638)"
         sodipodi:ry="2.652"
         sodipodi:rx="2.6329999"
         sodipodi:cy="3.536"
         sodipodi:cx="10.53"
         id="ellipse103"
         ry="2.652"
         rx="2.6329999"
         cy="3.536"
         cx="10.53"
         d="m 13.163,3.536 c 0,1.4646591 -1.178835,2.652 -2.633,2.652 -1.454166,0 -2.6330002,-1.1873409 -2.6330002,-2.652 0,-1.4646591 1.1788342,-2.65199994 2.6330002,-2.65199994 1.454165,0 2.633,1.18734084 2.633,2.65199994 z" /><ellipse
         style="fill:#e5e5e5;stroke:#999999;stroke-width:0.25"
         transform="translate(0.80884688,0.26217638)"
         sodipodi:ry="2.652"
         sodipodi:rx="2.6329999"
         sodipodi:cy="3.536"
         sodipodi:cx="3.51"
         id="ellipse105"
         ry="2.652"
         rx="2.6329999"
         cy="3.536"
         cx="3.51"
         d="m 6.1429999,3.536 c 0,1.4646591 -1.1788342,2.652 -2.6329999,2.652 -1.4541657,0 -2.63299991,-1.1873409 -2.63299991,-2.652 0,-1.4646591 1.17883421,-2.65199994 2.63299991,-2.65199994 1.4541657,0 2.6329999,1.18734084 2.6329999,2.65199994 z" /><ellipse
         id="ellipse61-3"
         ry="2.652"
         rx="2.6329999"
         cy="31.820999"
         cx="17.549999"
         transform="translate(-6.9151526,3.7471767)"
         sodipodi:cx="17.549999"
         sodipodi:cy="31.820999"
         sodipodi:rx="2.6329999"
         sodipodi:ry="2.652"
         style="fill:#e5e5e5;stroke:#999999;stroke-width:0.25"
         d="m 20.182999,31.820999 c 0,1.464659 -1.178834,2.652 -2.633,2.652 -1.454165,0 -2.633,-1.187341 -2.633,-2.652 0,-1.464659 1.178835,-2.652 2.633,-2.652 1.454166,0 2.633,1.187341 2.633,2.652 z" /><ellipse
         id="ellipse61-5"
         ry="2.652"
         rx="2.6329999"
         cy="31.820999"
         cx="17.549999"
         transform="translate(-6.9151526,-2.6068232)"
         sodipodi:cx="17.549999"
         sodipodi:cy="31.820999"
         sodipodi:rx="2.6329999"
         sodipodi:ry="2.652"
         style="fill:#e5e5e5;stroke:#999999;stroke-width:0.25"
         d="m 20.182999,31.820999 c 0,1.464659 -1.178834,2.652 -2.633,2.652 -1.454165,0 -2.633,-1.187341 -2.633,-2.652 0,-1.464659 1.178835,-2.652 2.633,-2.652 1.454166,0 2.633,1.187341 2.633,2.652 z" /><ellipse
         id="ellipse61-4"
         ry="2.652"
         rx="2.6329999"
         cy="31.820999"
         cx="17.549999"
         transform="translate(-6.9151526,-8.9608231)"
         sodipodi:cx="17.549999"
         sodipodi:cy="31.820999"
         sodipodi:rx="2.6329999"
         sodipodi:ry="2.652"
         style="fill:#e5e5e5;stroke:#999999;stroke-width:0.25"
         d="m 20.182999,31.820999 c 0,1.464659 -1.178834,2.652 -2.633,2.652 -1.454165,0 -2.633,-1.187341 -2.633,-2.652 0,-1.464659 1.178835,-2.652 2.633,-2.652 1.454166,0 2.633,1.187341 2.633,2.652 z" /><ellipse
         id="ellipse61-1"
         ry="2.652"
         rx="2.6329999"
         cy="31.820999"
         cx="17.549999"
         transform="translate(-0.5991528,-8.9608231)"
         sodipodi:cx="17.549999"
         sodipodi:cy="31.820999"
         sodipodi:rx="2.6329999"
         sodipodi:ry="2.652"
         style="fill:#e5e5e5;stroke:#999999;stroke-width:0.25"
         d="m 20.182999,31.820999 c 0,1.464659 -1.178834,2.652 -2.633,2.652 -1.454165,0 -2.633,-1.187341 -2.633,-2.652 0,-1.464659 1.178835,-2.652 2.633,-2.652 1.454166,0 2.633,1.187341 2.633,2.652 z" /><ellipse
         id="ellipse61-9"
         ry="2.652"
         rx="2.6329999"
         cy="31.820999"
         cx="17.549999"
         transform="translate(-6.9151526,-15.314823)"
         sodipodi:cx="17.549999"
         sodipodi:cy="31.820999"
         sodipodi:rx="2.6329999"
         sodipodi:ry="2.652"
         style="fill:#e5e5e5;stroke:#999999;stroke-width:0.25"
         d="m 20.182999,31.820999 c 0,1.464659 -1.178834,2.652 -2.633,2.652 -1.454165,0 -2.633,-1.187341 -2.633,-2.652 0,-1.464659 1.178835,-2.652 2.633,-2.652 1.454166,0 2.633,1.187341 2.633,2.652 z" /><ellipse
         id="ellipse61-10"
         ry="2.652"
         rx="2.6329999"
         cy="31.820999"
         cx="17.549999"
         transform="translate(-6.9151526,-21.668823)"
         sodipodi:cx="17.549999"
         sodipodi:cy="31.820999"
         sodipodi:rx="2.6329999"
         sodipodi:ry="2.652"
         style="fill:#e5e5e5;stroke:#999999;stroke-width:0.25"
         d="m 20.182999,31.820999 c 0,1.464659 -1.178834,2.652 -2.633,2.652 -1.454165,0 -2.633,-1.187341 -2.633,-2.652 0,-1.464659 1.178835,-2.652 2.633,-2.652 1.454166,0 2.633,1.187341 2.633,2.652 z" /><ellipse
         id="ellipse61-35"
         ry="2.652"
         rx="2.6329999"
         cy="31.820999"
         cx="17.549999"
         transform="translate(-0.5991528,-21.668823)"
         sodipodi:cx="17.549999"
         sodipodi:cy="31.820999"
         sodipodi:rx="2.6329999"
         sodipodi:ry="2.652"
         style="fill:#e5e5e5;stroke:#999999;stroke-width:0.25"
         d="m 20.182999,31.820999 c 0,1.464659 -1.178834,2.652 -2.633,2.652 -1.454165,0 -2.633,-1.187341 -2.633,-2.652 0,-1.464659 1.178835,-2.652 2.633,-2.652 1.454166,0 2.633,1.187341 2.633,2.652 z" /><ellipse
         id="ellipse61-8"
         ry="2.652"
         rx="2.6329999"
         cy="31.820999"
         cx="17.549999"
         transform="translate(5.716847,-21.668823)"
         sodipodi:cx="17.549999"
         sodipodi:cy="31.820999"
         sodipodi:rx="2.6329999"
         sodipodi:ry="2.652"
         style="fill:#e5e5e5;stroke:#999999;stroke-width:0.25"
         d="m 20.182999,31.820999 c 0,1.464659 -1.178834,2.652 -2.633,2.652 -1.454165,0 -2.633,-1.187341 -2.633,-2.652 0,-1.464659 1.178835,-2.652 2.633,-2.652 1.454166,0 2.633,1.187341 2.633,2.652 z" /><ellipse
         id="ellipse37-9"
         ry="2.651"
         rx="2.6329999"
         cy="45.965"
         cx="31.59"
         transform="translate(4.3088457,-4.0438243)"
         sodipodi:cx="31.59"
         sodipodi:cy="45.965"
         sodipodi:rx="2.6329999"
         sodipodi:ry="2.651"
         style="fill:#e5e5e5;stroke:#999999;stroke-width:0.25"
         d="m 34.223,45.965 c 0,1.464107 -1.178834,2.651 -2.633,2.651 -1.454166,0 -2.633,-1.186893 -2.633,-2.651 0,-1.464107 1.178834,-2.651 2.633,-2.651 1.454166,0 2.633,1.186893 2.633,2.651 z" /><ellipse
         id="ellipse47-9"
         ry="2.651"
         rx="2.6329999"
         cy="38.894001"
         cx="31.59"
         transform="translate(4.3088457,-3.3258251)"
         sodipodi:cx="31.59"
         sodipodi:cy="38.894001"
         sodipodi:rx="2.6329999"
         sodipodi:ry="2.651"
         style="fill:#e5e5e5;stroke:#999999;stroke-width:0.25"
         d="m 34.223,38.894001 c 0,1.464107 -1.178834,2.651 -2.633,2.651 -1.454166,0 -2.633,-1.186893 -2.633,-2.651 0,-1.464107 1.178834,-2.651 2.633,-2.651 1.454166,0 2.633,1.186893 2.633,2.651 z" /><ellipse
         id="ellipse57-5"
         ry="2.652"
         rx="2.6329999"
         cy="31.820999"
         cx="31.59"
         transform="translate(4.3088457,-2.6068232)"
         sodipodi:cx="31.59"
         sodipodi:cy="31.820999"
         sodipodi:rx="2.6329999"
         sodipodi:ry="2.652"
         style="fill:#e5e5e5;stroke:#999999;stroke-width:0.25"
         d="m 34.223,31.820999 c 0,1.464659 -1.178834,2.652 -2.633,2.652 -1.454166,0 -2.633,-1.187341 -2.633,-2.652 0,-1.464659 1.178834,-2.652 2.633,-2.652 1.454166,0 2.633,1.187341 2.633,2.652 z" /><ellipse
         id="ellipse67-6"
         ry="2.652"
         rx="2.6329999"
         cy="24.75"
         cx="31.59"
         transform="translate(4.3088457,-1.8898239)"
         sodipodi:cx="31.59"
         sodipodi:cy="24.75"
         sodipodi:rx="2.6329999"
         sodipodi:ry="2.652"
         style="fill:#e5e5e5;stroke:#999999;stroke-width:0.25"
         d="m 34.223,24.75 c 0,1.464659 -1.178834,2.652 -2.633,2.652 -1.454166,0 -2.633,-1.187341 -2.633,-2.652 0,-1.464659 1.178834,-2.652 2.633,-2.652 1.454166,0 2.633,1.187341 2.633,2.652 z" /><ellipse
         id="ellipse77-2"
         ry="2.652"
         rx="2.6329999"
         cy="17.679001"
         cx="31.59"
         transform="translate(4.3088457,-1.1728247)"
         sodipodi:cx="31.59"
         sodipodi:cy="17.679001"
         sodipodi:rx="2.6329999"
         sodipodi:ry="2.652"
         style="fill:#e5e5e5;stroke:#999999;stroke-width:0.25"
         d="m 34.223,17.679001 c 0,1.464659 -1.178834,2.652 -2.633,2.652 -1.454166,0 -2.633,-1.187341 -2.633,-2.652 0,-1.464659 1.178834,-2.652 2.633,-2.652 1.454166,0 2.633,1.187341 2.633,2.652 z" /><ellipse
         id="ellipse87-2"
         ry="2.652"
         rx="2.6329999"
         cy="10.608"
         cx="31.59"
         transform="translate(4.3088457,-0.45582349)"
         sodipodi:cx="31.59"
         sodipodi:cy="10.608"
         sodipodi:rx="2.6329999"
         sodipodi:ry="2.652"
         style="fill:#e5e5e5;stroke:#999999;stroke-width:0.25"
         d="m 34.223,10.608 c 0,1.464659 -1.178834,2.652 -2.633,2.652 -1.454166,0 -2.633,-1.187341 -2.633,-2.652 0,-1.4646593 1.178834,-2.6520001 2.633,-2.6520001 1.454166,0 2.633,1.1873408 2.633,2.6520001 z" /><ellipse
         id="ellipse97-3"
         ry="2.652"
         rx="2.6329999"
         cy="3.536"
         cx="31.59"
         transform="translate(4.3088457,0.26217638)"
         sodipodi:cx="31.59"
         sodipodi:cy="3.536"
         sodipodi:rx="2.6329999"
         sodipodi:ry="2.652"
         style="fill:#e5e5e5;stroke:#999999;stroke-width:0.25"
         d="m 34.223,3.536 c 0,1.4646591 -1.178834,2.652 -2.633,2.652 -1.454166,0 -2.633,-1.1873409 -2.633,-2.652 0,-1.4646591 1.178834,-2.65199994 2.633,-2.65199994 1.454166,0 2.633,1.18734084 2.633,2.65199994 z" /><ellipse
         id="ellipse37-1"
         ry="2.651"
         rx="2.6329999"
         cy="45.965"
         cx="31.59"
         transform="translate(10.624845,-4.0438243)"
         sodipodi:cx="31.59"
         sodipodi:cy="45.965"
         sodipodi:rx="2.6329999"
         sodipodi:ry="2.651"
         style="fill:#e5e5e5;stroke:#999999;stroke-width:0.25"
         d="m 34.223,45.965 c 0,1.464107 -1.178834,2.651 -2.633,2.651 -1.454166,0 -2.633,-1.186893 -2.633,-2.651 0,-1.464107 1.178834,-2.651 2.633,-2.651 1.454166,0 2.633,1.186893 2.633,2.651 z" /><ellipse
         id="ellipse47-93"
         ry="2.651"
         rx="2.6329999"
         cy="38.894001"
         cx="31.59"
         transform="translate(10.624845,-3.3258251)"
         sodipodi:cx="31.59"
         sodipodi:cy="38.894001"
         sodipodi:rx="2.6329999"
         sodipodi:ry="2.651"
         style="fill:#e5e5e5;stroke:#999999;stroke-width:0.25"
         d="m 34.223,38.894001 c 0,1.464107 -1.178834,2.651 -2.633,2.651 -1.454166,0 -2.633,-1.186893 -2.633,-2.651 0,-1.464107 1.178834,-2.651 2.633,-2.651 1.454166,0 2.633,1.186893 2.633,2.651 z" /><ellipse
         id="ellipse57-8"
         ry="2.652"
         rx="2.6329999"
         cy="31.820999"
         cx="31.59"
         transform="translate(10.624845,-2.6068232)"
         sodipodi:cx="31.59"
         sodipodi:cy="31.820999"
         sodipodi:rx="2.6329999"
         sodipodi:ry="2.652"
         style="fill:#e5e5e5;stroke:#999999;stroke-width:0.25"
         d="m 34.223,31.820999 c 0,1.464659 -1.178834,2.652 -2.633,2.652 -1.454166,0 -2.633,-1.187341 -2.633,-2.652 0,-1.464659 1.178834,-2.652 2.633,-2.652 1.454166,0 2.633,1.187341 2.633,2.652 z" /><ellipse
         id="ellipse67-60"
         ry="2.652"
         rx="2.6329999"
         cy="24.75"
         cx="31.59"
         transform="translate(10.624845,-1.8898239)"
         sodipodi:cx="31.59"
         sodipodi:cy="24.75"
         sodipodi:rx="2.6329999"
         sodipodi:ry="2.652"
         style="fill:#e5e5e5;stroke:#999999;stroke-width:0.25"
         d="m 34.223,24.75 c 0,1.464659 -1.178834,2.652 -2.633,2.652 -1.454166,0 -2.633,-1.187341 -2.633,-2.652 0,-1.464659 1.178834,-2.652 2.633,-2.652 1.454166,0 2.633,1.187341 2.633,2.652 z" /><ellipse
         id="ellipse77-6"
         ry="2.652"
         rx="2.6329999"
         cy="17.679001"
         cx="31.59"
         transform="translate(10.624845,-1.1728247)"
         sodipodi:cx="31.59"
         sodipodi:cy="17.679001"
         sodipodi:rx="2.6329999"
         sodipodi:ry="2.652"
         style="fill:#e5e5e5;stroke:#999999;stroke-width:0.25"
         d="m 34.223,17.679001 c 0,1.464659 -1.178834,2.652 -2.633,2.652 -1.454166,0 -2.633,-1.187341 -2.633,-2.652 0,-1.464659 1.178834,-2.652 2.633,-2.652 1.454166,0 2.633,1.187341 2.633,2.652 z" /><ellipse
         id="ellipse87-28"
         ry="2.652"
         rx="2.6329999"
         cy="10.608"
         cx="31.59"
         transform="translate(10.624845,-0.45582349)"
         sodipodi:cx="31.59"
         sodipodi:cy="10.608"
         sodipodi:rx="2.6329999"
         sodipodi:ry="2.652"
         style="fill:#e5e5e5;stroke:#999999;stroke-width:0.25"
         d="m 34.223,10.608 c 0,1.464659 -1.178834,2.652 -2.633,2.652 -1.454166,0 -2.633,-1.187341 -2.633,-2.652 0,-1.4646593 1.178834,-2.6520001 2.633,-2.6520001 1.454166,0 2.633,1.1873408 2.633,2.6520001 z" /><ellipse
         id="ellipse97-4"
         ry="2.652"
         rx="2.6329999"
         cy="3.536"
         cx="31.59"
         transform="translate(10.624845,0.26217638)"
         sodipodi:cx="31.59"
         sodipodi:cy="3.536"
         sodipodi:rx="2.6329999"
         sodipodi:ry="2.652"
         style="fill:#e5e5e5;stroke:#999999;stroke-width:0.25"
         d="m 34.223,3.536 c 0,1.4646591 -1.178834,2.652 -2.633,2.652 -1.454166,0 -2.633,-1.1873409 -2.633,-2.652 0,-1.4646591 1.178834,-2.65199994 2.633,-2.65199994 1.454166,0 2.633,1.18734084 2.633,2.65199994 z" /><ellipse
         id="ellipse37-5"
         ry="2.651"
         rx="2.6329999"
         cy="45.965"
         cx="31.59"
         transform="translate(16.940846,-4.0438243)"
         sodipodi:cx="31.59"
         sodipodi:cy="45.965"
         sodipodi:rx="2.6329999"
         sodipodi:ry="2.651"
         style="fill:#e5e5e5;stroke:#999999;stroke-width:0.25"
         d="m 34.223,45.965 c 0,1.464107 -1.178834,2.651 -2.633,2.651 -1.454166,0 -2.633,-1.186893 -2.633,-2.651 0,-1.464107 1.178834,-2.651 2.633,-2.651 1.454166,0 2.633,1.186893 2.633,2.651 z" /><ellipse
         id="ellipse47-8"
         ry="2.651"
         rx="2.6329999"
         cy="38.894001"
         cx="31.59"
         transform="translate(16.940846,-3.3258251)"
         sodipodi:cx="31.59"
         sodipodi:cy="38.894001"
         sodipodi:rx="2.6329999"
         sodipodi:ry="2.651"
         style="fill:#e5e5e5;stroke:#999999;stroke-width:0.25"
         d="m 34.223,38.894001 c 0,1.464107 -1.178834,2.651 -2.633,2.651 -1.454166,0 -2.633,-1.186893 -2.633,-2.651 0,-1.464107 1.178834,-2.651 2.633,-2.651 1.454166,0 2.633,1.186893 2.633,2.651 z" /><ellipse
         id="ellipse57-9"
         ry="2.652"
         rx="2.6329999"
         cy="31.820999"
         cx="31.59"
         transform="translate(16.940846,-2.6068232)"
         sodipodi:cx="31.59"
         sodipodi:cy="31.820999"
         sodipodi:rx="2.6329999"
         sodipodi:ry="2.652"
         style="fill:#e5e5e5;stroke:#999999;stroke-width:0.25"
         d="m 34.223,31.820999 c 0,1.464659 -1.178834,2.652 -2.633,2.652 -1.454166,0 -2.633,-1.187341 -2.633,-2.652 0,-1.464659 1.178834,-2.652 2.633,-2.652 1.454166,0 2.633,1.187341 2.633,2.652 z" /><ellipse
         id="ellipse67-1"
         ry="2.652"
         rx="2.6329999"
         cy="24.75"
         cx="31.59"
         transform="translate(16.940846,-1.8898239)"
         sodipodi:cx="31.59"
         sodipodi:cy="24.75"
         sodipodi:rx="2.6329999"
         sodipodi:ry="2.652"
         style="fill:#e5e5e5;stroke:#999999;stroke-width:0.25"
         d="m 34.223,24.75 c 0,1.464659 -1.178834,2.652 -2.633,2.652 -1.454166,0 -2.633,-1.187341 -2.633,-2.652 0,-1.464659 1.178834,-2.652 2.633,-2.652 1.454166,0 2.633,1.187341 2.633,2.652 z" /><ellipse
         id="ellipse77-3"
         ry="2.652"
         rx="2.6329999"
         cy="17.679001"
         cx="31.59"
         transform="translate(16.940846,-1.1728247)"
         sodipodi:cx="31.59"
         sodipodi:cy="17.679001"
         sodipodi:rx="2.6329999"
         sodipodi:ry="2.652"
         style="fill:#e5e5e5;stroke:#999999;stroke-width:0.25"
         d="m 34.223,17.679001 c 0,1.464659 -1.178834,2.652 -2.633,2.652 -1.454166,0 -2.633,-1.187341 -2.633,-2.652 0,-1.464659 1.178834,-2.652 2.633,-2.652 1.454166,0 2.633,1.187341 2.633,2.652 z" /><ellipse
         id="ellipse87-5"
         ry="2.652"
         rx="2.6329999"
         cy="10.608"
         cx="31.59"
         transform="translate(16.940846,-0.45582349)"
         sodipodi:cx="31.59"
         sodipodi:cy="10.608"
         sodipodi:rx="2.6329999"
         sodipodi:ry="2.652"
         style="fill:#e5e5e5;stroke:#999999;stroke-width:0.25"
         d="m 34.223,10.608 c 0,1.464659 -1.178834,2.652 -2.633,2.652 -1.454166,0 -2.633,-1.187341 -2.633,-2.652 0,-1.4646593 1.178834,-2.6520001 2.633,-2.6520001 1.454166,0 2.633,1.1873408 2.633,2.6520001 z" /><ellipse
         id="ellipse97-5"
         ry="2.652"
         rx="2.6329999"
         cy="3.536"
         cx="31.59"
         transform="translate(16.940846,0.26217638)"
         sodipodi:cx="31.59"
         sodipodi:cy="3.536"
         sodipodi:rx="2.6329999"
         sodipodi:ry="2.652"
         style="fill:#e5e5e5;stroke:#999999;stroke-width:0.25"
         d="m 34.223,3.536 c 0,1.4646591 -1.178834,2.652 -2.633,2.652 -1.454166,0 -2.633,-1.1873409 -2.633,-2.652 0,-1.4646591 1.178834,-2.65199994 2.633,-2.65199994 1.454166,0 2.633,1.18734084 2.633,2.65199994 z" /><ellipse
         style="fill:#e5e5e5;stroke:#999999;stroke-width:0.25"
         transform="translate(-2.0071541,2.3081758)"
         sodipodi:ry="2.651"
         sodipodi:rx="2.6329999"
         sodipodi:cy="45.965"
         sodipodi:cx="31.59"
         id="ellipse37-14"
         ry="2.651"
         rx="2.6329999"
         cy="45.965"
         cx="31.59"
         d="m 34.223,45.965 c 0,1.464107 -1.178834,2.651 -2.633,2.651 -1.454166,0 -2.633,-1.186893 -2.633,-2.651 0,-1.464107 1.178834,-2.651 2.633,-2.651 1.454166,0 2.633,1.186893 2.633,2.651 z" /><ellipse
         style="fill:#e5e5e5;stroke:#999999;stroke-width:0.25"
         transform="translate(-1.3031534,2.3081758)"
         sodipodi:ry="2.651"
         sodipodi:rx="2.632"
         sodipodi:cy="45.965"
         sodipodi:cx="24.57"
         id="ellipse39-4"
         ry="2.651"
         rx="2.632"
         cy="45.965"
         cx="24.57"
         d="m 27.202,45.965 c 0,1.464107 -1.178387,2.651 -2.632,2.651 -1.453614,0 -2.632,-1.186893 -2.632,-2.651 0,-1.464107 1.178386,-2.651 2.632,-2.651 1.453613,0 2.632,1.186893 2.632,2.651 z" /><ellipse
         style="fill:#e5e5e5;stroke:#999999;stroke-width:0.25"
         transform="translate(-0.5991528,2.3081758)"
         sodipodi:ry="2.651"
         sodipodi:rx="2.6329999"
         sodipodi:cy="45.965"
         sodipodi:cx="17.549999"
         id="ellipse41-9"
         ry="2.651"
         rx="2.6329999"
         cy="45.965"
         cx="17.549999"
         d="m 20.182999,45.965 c 0,1.464107 -1.178834,2.651 -2.633,2.651 -1.454165,0 -2.633,-1.186893 -2.633,-2.651 0,-1.464107 1.178835,-2.651 2.633,-2.651 1.454166,0 2.633,1.186893 2.633,2.651 z" /><ellipse
         style="fill:#e5e5e5;stroke:#999999;stroke-width:0.25"
         transform="translate(0.1048469,2.3081758)"
         sodipodi:ry="2.651"
         sodipodi:rx="2.6329999"
         sodipodi:cy="45.965"
         sodipodi:cx="10.53"
         id="ellipse43-8"
         ry="2.651"
         rx="2.6329999"
         cy="45.965"
         cx="10.53"
         d="m 13.163,45.965 c 0,1.464107 -1.178835,2.651 -2.633,2.651 -1.454166,0 -2.6330002,-1.186893 -2.6330002,-2.651 0,-1.464107 1.1788342,-2.651 2.6330002,-2.651 1.454165,0 2.633,1.186893 2.633,2.651 z" /><ellipse
         style="fill:#e5e5e5;stroke:#999999;stroke-width:0.25"
         transform="translate(0.80884688,2.3081758)"
         sodipodi:ry="2.651"
         sodipodi:rx="2.6329999"
         sodipodi:cy="45.965"
         sodipodi:cx="3.51"
         id="ellipse45-8"
         ry="2.651"
         rx="2.6329999"
         cy="45.965"
         cx="3.51"
         d="m 6.1429999,45.965 c 0,1.464107 -1.1788342,2.651 -2.6329999,2.651 -1.4541657,0 -2.63299991,-1.186893 -2.63299991,-2.651 0,-1.464107 1.17883421,-2.651 2.63299991,-2.651 1.4541657,0 2.6329999,1.186893 2.6329999,2.651 z" /><ellipse
         id="ellipse37-9-2"
         ry="2.651"
         rx="2.6329999"
         cy="45.965"
         cx="31.59"
         transform="translate(4.3088457,2.3081758)"
         sodipodi:cx="31.59"
         sodipodi:cy="45.965"
         sodipodi:rx="2.6329999"
         sodipodi:ry="2.651"
         style="fill:#e5e5e5;stroke:#999999;stroke-width:0.25"
         d="m 34.223,45.965 c 0,1.464107 -1.178834,2.651 -2.633,2.651 -1.454166,0 -2.633,-1.186893 -2.633,-2.651 0,-1.464107 1.178834,-2.651 2.633,-2.651 1.454166,0 2.633,1.186893 2.633,2.651 z" /><ellipse
         id="ellipse37-1-1"
         ry="2.651"
         rx="2.6329999"
         cy="45.965"
         cx="31.59"
         transform="translate(10.624845,2.3081758)"
         sodipodi:cx="31.59"
         sodipodi:cy="45.965"
         sodipodi:rx="2.6329999"
         sodipodi:ry="2.651"
         style="fill:#e5e5e5;stroke:#999999;stroke-width:0.25"
         d="m 34.223,45.965 c 0,1.464107 -1.178834,2.651 -2.633,2.651 -1.454166,0 -2.633,-1.186893 -2.633,-2.651 0,-1.464107 1.178834,-2.651 2.633,-2.651 1.454166,0 2.633,1.186893 2.633,2.651 z" /><ellipse
         id="ellipse37-5-7"
         ry="2.651"
         rx="2.6329999"
         cy="45.965"
         cx="31.59"
         transform="translate(16.940846,2.3081758)"
         sodipodi:cx="31.59"
         sodipodi:cy="45.965"
         sodipodi:rx="2.6329999"
         sodipodi:ry="2.651"
         style="fill:#e5e5e5;stroke:#999999;stroke-width:0.25"
         d="m 34.223,45.965 c 0,1.464107 -1.178834,2.651 -2.633,2.651 -1.454166,0 -2.633,-1.186893 -2.633,-2.651 0,-1.464107 1.178834,-2.651 2.633,-2.651 1.454166,0 2.633,1.186893 2.633,2.651 z" /></g><g
       transform="matrix(0,0.9999982,-0.9999982,0,8.1697764,-71.563209)"
       id="g281"><polygon
         style="fill:#404040"
         id="polygon283"
         points="63.235,1.432 59.163,1.432 57.599,2.996 57.599,7.069 59.163,8.632 63.235,8.632 64.8,7.069 64.8,2.996 " /><rect
         style="fill:#8d8c8c"
         id="rect285"
         width="2.2969999"
         height="2.299"
         y="3.882"
         x="60.051998" /><rect
         style="fill:#8c8663"
         id="rect287"
         width="1.183"
         height="1.184"
         y="4.4400001"
         x="60.609001" /><polygon
         style="fill:#b8af82"
         id="polygon289"
         points="62.347,3.882 60.052,3.882 60.609,4.44 61.79,4.44 " /><polygon
         style="fill:#80795b"
         id="polygon291"
         points="62.347,6.181 61.79,5.622 61.79,4.44 62.347,3.882 " /><polygon
         style="fill:#5e5b43"
         id="polygon293"
         points="60.052,6.181 60.609,5.622 61.79,5.622 62.347,6.181 " /><polygon
         style="fill:#9a916c"
         id="polygon295"
         points="60.052,6.181 60.052,3.882 60.609,4.44 60.609,5.622 " /><polygon
         style="fill:#404040"
         id="polygon297"
         points="70.435,1.432 66.363,1.432 64.8,2.996 64.8,7.069 66.363,8.632 70.435,8.632 72,7.069 72,2.996 " /><rect
         style="fill:#8d8c8c"
         id="rect299"
         width="2.2980001"
         height="2.299"
         y="3.882"
         x="67.250999" /><rect
         style="fill:#8c8663"
         id="rect301"
         width="1.183"
         height="1.184"
         y="4.4400001"
         x="67.807999" /><polygon
         style="fill:#b8af82"
         id="polygon303"
         points="69.549,3.882 67.251,3.882 67.808,4.44 68.991,4.44 " /><polygon
         style="fill:#80795b"
         id="polygon305"
         points="69.549,6.181 68.991,5.622 68.991,4.44 69.549,3.882 " /><polygon
         style="fill:#5e5b43"
         id="polygon307"
         points="67.251,6.181 67.808,5.622 68.991,5.622 69.549,6.181 " /><polygon
         style="fill:#9a916c"
         id="polygon309"
         points="67.251,6.181 67.251,3.882 67.808,4.44 67.808,5.622 " /><polygon
         style="fill:#404040"
         id="polygon311"
         points="77.635,1.432 73.562,1.432 72,2.996 72,7.069 73.562,8.632 77.635,8.632 79.2,7.069 79.2,2.996 " /><rect
         style="fill:#8d8c8c"
         id="rect313"
         width="2.2969999"
         height="2.299"
         y="3.882"
         x="74.452003" /><rect
         style="fill:#8c8663"
         id="rect315"
         width="1.1849999"
         height="1.184"
         y="4.4400001"
         x="75.009003" /><polygon
         style="fill:#b8af82"
         id="polygon317"
         points="76.749,3.882 74.452,3.882 75.009,4.44 76.19,4.44 " /><polygon
         style="fill:#80795b"
         id="polygon319"
         points="76.749,6.181 76.19,5.622 76.19,4.44 76.749,3.882 " /><polygon
         style="fill:#5e5b43"
         id="polygon321"
         points="74.452,6.181 75.009,5.622 76.19,5.622 76.749,6.181 " /><polygon
         style="fill:#9a916c"
         id="polygon323"
         points="74.452,6.181 74.452,3.882 75.009,4.44 75.009,5.622 " /><polygon
         style="fill:#404040"
         id="polygon325"
         points="84.836,1.432 80.761,1.432 79.2,2.996 79.2,7.069 80.761,8.632 84.836,8.632 86.399,7.069 86.399,2.996 " /><rect
         style="fill:#8d8c8c"
         id="rect327"
         width="2.2969999"
         height="2.299"
         y="3.882"
         x="81.651001" /><rect
         style="fill:#8c8663"
         id="rect329"
         width="1.182"
         height="1.184"
         y="4.4400001"
         x="82.209999" /><polygon
         style="fill:#b8af82"
         id="polygon331"
         points="83.948,3.882 81.651,3.882 82.21,4.44 83.389,4.44 " /><polygon
         style="fill:#80795b"
         id="polygon333"
         points="83.948,6.181 83.389,5.622 83.389,4.44 83.948,3.882 " /><polygon
         style="fill:#5e5b43"
         id="polygon335"
         points="81.651,6.181 82.21,5.622 83.389,5.622 83.948,6.181 " /><polygon
         style="fill:#9a916c"
         id="polygon337"
         points="81.651,6.181 81.651,3.882 82.21,4.44 82.21,5.622 " /><polygon
         style="fill:#404040"
         id="polygon339"
         points="92.036,1.432 87.964,1.432 86.399,2.996 86.399,7.069 87.964,8.632 92.036,8.632 93.599,7.069 93.599,2.996 " /><rect
         style="fill:#8d8c8c"
         id="rect341"
         width="2.299"
         height="2.299"
         y="3.882"
         x="88.849998" /><rect
         style="fill:#8c8663"
         id="rect343"
         width="1.183"
         height="1.184"
         y="4.4400001"
         x="89.408997" /><polygon
         style="fill:#b8af82"
         id="polygon345"
         points="91.149,3.882 88.85,3.882 89.409,4.44 90.591,4.44 " /><polygon
         style="fill:#80795b"
         id="polygon347"
         points="91.149,6.181 90.591,5.622 90.591,4.44 91.149,3.882 " /><polygon
         style="fill:#5e5b43"
         id="polygon349"
         points="88.85,6.181 89.409,5.622 90.591,5.622 91.149,6.181 " /><polygon
         style="fill:#9a916c"
         id="polygon351"
         points="88.85,6.181 88.85,3.882 89.409,4.44 89.409,5.622 " /><polygon
         style="fill:#404040"
         id="polygon353"
         points="99.235,1.432 95.163,1.432 93.599,2.996 93.599,7.069 95.163,8.632 99.235,8.632 100.8,7.069 100.8,2.996 " /><rect
         style="fill:#8d8c8c"
         id="rect355"
         width="2.2969999"
         height="2.299"
         y="3.882"
         x="96.052002" /><rect
         style="fill:#8c8663"
         id="rect357"
         width="1.183"
         height="1.184"
         y="4.4400001"
         x="96.609001" /><polygon
         style="fill:#b8af82"
         id="polygon359"
         points="98.347,3.882 96.052,3.882 96.609,4.44 97.79,4.44 " /><polygon
         style="fill:#80795b"
         id="polygon361"
         points="98.347,6.181 97.79,5.622 97.79,4.44 98.347,3.882 " /><polygon
         style="fill:#5e5b43"
         id="polygon363"
         points="96.052,6.181 96.609,5.622 97.79,5.622 98.347,6.181 " /><polygon
         style="fill:#9a916c"
         id="polygon365"
         points="96.052,6.181 96.052,3.882 96.609,4.44 96.609,5.622 " /></g><g
       transform="matrix(0,0.9999982,-0.9999982,0,268.52293,-71.563208)"
       id="g213"><rect
         style="fill:#404040"
         id="rect215"
         width="43.199001"
         height="7.198"
         y="165.685"
         x="57.598999" /><rect
         id="rect217"
         width="0"
         height="0"
         y="167.894"
         x="59.808998" /><polygon
         style="fill:#2a2a29"
         id="polygon219"
         points="58.785,166.869 59.807,167.894 62.593,167.894 63.617,166.869 " /><polygon
         style="fill:#474747"
         id="polygon221"
         points="63.617,166.869 62.593,167.896 62.593,170.677 63.617,171.701 " /><polygon
         style="fill:#595959"
         id="polygon223"
         points="63.616,171.701 62.592,170.677 59.807,170.677 58.785,171.701 " /><polygon
         style="fill:#373737"
         id="polygon225"
         points="58.783,171.701 59.807,170.676 59.807,167.894 58.783,166.869 " /><rect
         id="rect227"
         width="2.78"
         height="2.78"
         y="167.894"
         x="67.010002" /><rect
         id="rect229"
         width="2.78"
         height="2.78"
         y="167.894"
         x="59.811001" /><polygon
         style="fill:#2a2a29"
         id="polygon231"
         points="65.984,166.869 67.009,167.894 69.791,167.894 70.815,166.869 " /><polygon
         style="fill:#474747"
         id="polygon233"
         points="70.815,166.869 69.791,167.896 69.791,170.677 70.815,171.701 " /><polygon
         style="fill:#595959"
         id="polygon235"
         points="70.815,171.701 69.79,170.677 67.009,170.677 65.984,171.701 " /><polygon
         style="fill:#373737"
         id="polygon237"
         points="65.982,171.701 67.009,170.676 67.009,167.894 65.982,166.869 " /><rect
         id="rect239"
         width="2.7809999"
         height="2.78"
         y="167.894"
         x="74.209999" /><polygon
         style="fill:#2a2a29"
         id="polygon241"
         points="73.183,166.869 74.208,167.894 76.992,167.894 78.015,166.869 " /><polygon
         style="fill:#474747"
         id="polygon243"
         points="78.015,166.869 76.992,167.896 76.992,170.677 78.015,171.701 " /><polygon
         style="fill:#595959"
         id="polygon245"
         points="78.015,171.701 76.991,170.677 74.208,170.677 73.183,171.701 " /><polygon
         style="fill:#373737"
         id="polygon247"
         points="73.181,171.701 74.208,170.676 74.208,167.894 73.181,166.869 " /><rect
         id="rect249"
         width="2.7809999"
         height="2.78"
         y="167.894"
         x="81.411003" /><polygon
         style="fill:#2a2a29"
         id="polygon251"
         points="80.385,166.869 81.409,167.894 84.192,167.894 85.218,166.869 " /><polygon
         style="fill:#474747"
         id="polygon253"
         points="85.218,166.869 84.192,167.896 84.192,170.677 85.218,171.701 " /><polygon
         style="fill:#595959"
         id="polygon255"
         points="85.216,171.701 84.19,170.677 81.409,170.677 80.385,171.701 " /><polygon
         style="fill:#373737"
         id="polygon257"
         points="80.382,171.701 81.409,170.676 81.409,167.894 80.382,166.869 " /><rect
         id="rect259"
         width="2.78"
         height="2.78"
         y="167.894"
         x="88.610001" /><rect
         id="rect261"
         width="2.7809999"
         height="2.78"
         y="167.894"
         x="95.807999" /><polygon
         style="fill:#2a2a29"
         id="polygon263"
         points="87.585,166.869 88.608,167.894 91.39,167.894 92.417,166.869 " /><polygon
         style="fill:#474747"
         id="polygon265"
         points="92.417,166.869 91.39,167.896 91.39,170.677 92.417,171.701 " /><polygon
         style="fill:#595959"
         id="polygon267"
         points="92.415,171.701 91.39,170.677 88.608,170.677 87.585,171.701 " /><polygon
         style="fill:#373737"
         id="polygon269"
         points="87.583,171.701 88.608,170.676 88.608,167.894 87.583,166.869 " /><polygon
         id="polygon271"
         points="97.2,169.285 97.2,169.285 97.2,169.285 " /><polygon
         style="fill:#2a2a29"
         id="polygon273"
         points="94.784,166.869 95.806,167.894 98.593,167.894 99.616,166.869 " /><polygon
         style="fill:#474747"
         id="polygon275"
         points="99.616,166.869 98.593,167.896 98.593,170.677 99.616,171.701 " /><polygon
         style="fill:#595959"
         id="polygon277"
         points="99.616,171.701 98.591,170.677 95.806,170.677 94.784,171.701 " /><polygon
         style="fill:#373737"
         id="polygon279"
         points="94.782,171.701 95.806,170.676 95.806,167.894 94.782,166.869 " /></g></g></svg>