
<svg xmlns="http://www.w3.org/2000/svg"
     xmlns:xlink="http://www.w3.org/1999/xlink" version="1.1" width="930"
     height="688">
    <defs/>
    <g transform=" translate(-836,-476)">
        <path d="M 1560 560 L 1732.31 560 L 1760 600 L 1732.31 640 L 1560 640 Z"
              fill="#ffffff" stroke="#000000" stroke-width="4"
              stroke-miterlimit="10" pointer-events="none"/>
        <g fill="#000" font-family="Arial,Helvetica" font-weight="bold"
           text-anchor="middle" font-size="48px">
            <text x="1659.75" y="615.75">
                GPIO
            </text>
        </g>
        <rect x="1316" y="876" width="8" height="8" fill="#000000" stroke="none"
              pointer-events="none"/>
        <rect x="1076" y="876" width="8" height="8" fill="#000000" stroke="none"
              pointer-events="none"/>
        <ellipse cx="1270" cy="880" rx="8" ry="8" fill="none" stroke="#000000"
                 stroke-width="8" pointer-events="none"/>
        <rect x="1122.62" y="848.51" width="155.69" height="3.75" fill="none"
              stroke="#000000" stroke-width="4.32" pointer-events="none"/>
        <ellipse cx="1130" cy="880" rx="8" ry="8" fill="none" stroke="#000000"
                 stroke-width="8" pointer-events="none"/>
        <path d="M 1282 880 L 1316 880" fill="none" stroke="#000000"
              stroke-width="8" stroke-linecap="square" stroke-miterlimit="10"
              pointer-events="none"/>
        <path d="M 1084 880 L 1118 880" fill="none" stroke="#000000"
              stroke-width="8" stroke-linecap="square" stroke-miterlimit="10"
              pointer-events="none"/>
        <path d="M 1200.46 782.9 C 1200.46 846.42 1200.46 846.42 1200.46 846.42"
              fill="none" stroke="#000000" stroke-width="8"
              stroke-linecap="square" stroke-miterlimit="10"
              pointer-events="none"/>
        <rect x="1064" y="864" width="32" height="32" fill="none" stroke="none"
              pointer-events="none"/>
        <rect x="1304" y="864" width="32" height="32" fill="none" stroke="none"
              pointer-events="none"/>
        <rect x="1040" y="920" width="304" height="48" fill-opacity="0"
              fill="#dae2f2" stroke="#000000" stroke-opacity="0"
              pointer-events="none"/>
        <g fill="#000000" font-family="Arial,Helvetica" font-weight="bold"
           text-anchor="middle" font-size="48px">
            <text x="1191.75" y="959.75">
                PUSHBUTTON
            </text>
        </g>
        <rect x="916" y="996" width="8" height="8" fill="#000000" stroke="none"
              pointer-events="none"/>
        <path d="M 876 1084 C 964.08 1084 964.08 1084 964.08 1084" fill="none"
              stroke="#000000" stroke-width="8" stroke-linecap="round"
              stroke-miterlimit="10" pointer-events="none"/>
        <path d="M 892 1108 C 930.28 1108 948 1108 948 1108" fill="none"
              stroke="#000000" stroke-width="8" stroke-linecap="round"
              stroke-miterlimit="10" pointer-events="none"/>
        <path d="M 908 1132 C 920.48 1132 932 1132 932 1132" fill="none"
              stroke="#000000" stroke-width="8" stroke-linecap="round"
              stroke-miterlimit="10" pointer-events="none"/>
        <path d="M 920 1004 L 920 1076" fill="#000000" stroke="#000000"
              stroke-width="8" stroke-linecap="square" stroke-miterlimit="10"
              pointer-events="none"/>
        <rect x="904" y="984" width="32" height="32" fill="none" stroke="none"
              pointer-events="none"/>
        <path d="M 1080 880 L 920 880 L 920 1000" fill="none" stroke="#000000"
              stroke-width="8" stroke-miterlimit="10" pointer-events="none"/>
        <rect x="1316" y="596" width="8" height="8" fill="#000000" stroke="none"
              pointer-events="none"/>
        <rect x="1076" y="596" width="8" height="8" fill="#000000" stroke="none"
              pointer-events="none"/>
        <ellipse cx="1270" cy="600" rx="8" ry="8" fill="none" stroke="#000000"
                 stroke-width="8" pointer-events="none"/>
        <rect x="1122.62" y="568.51" width="155.69" height="3.75" fill="none"
              stroke="#000000" stroke-width="4.32" pointer-events="none"/>
        <ellipse cx="1130" cy="600" rx="8" ry="8" fill="none" stroke="#000000"
                 stroke-width="8" pointer-events="none"/>
        <path d="M 1282 600 L 1316 600" fill="none" stroke="#000000"
              stroke-width="8" stroke-linecap="square" stroke-miterlimit="10"
              pointer-events="none"/>
        <path d="M 1084 600 L 1118 600" fill="none" stroke="#000000"
              stroke-width="8" stroke-linecap="square" stroke-miterlimit="10"
              pointer-events="none"/>
        <path d="M 1200.46 502.9 C 1200.46 566.42 1200.46 566.42 1200.46 566.42"
              fill="none" stroke="#000000" stroke-width="8"
              stroke-linecap="square" stroke-miterlimit="10"
              pointer-events="none"/>
        <rect x="1064" y="584" width="32" height="32" fill="none" stroke="none"
              pointer-events="none"/>
        <rect x="1304" y="584" width="32" height="32" fill="none" stroke="none"
              pointer-events="none"/>
        <rect x="1000" y="640" width="344" height="48" fill-opacity="0"
              fill="#dae2f2" stroke="#000000" stroke-opacity="0"
              pointer-events="none"/>
        <g fill="#000000" font-family="Arial,Helvetica" font-weight="bold"
           text-anchor="middle" font-size="48px">
            <text x="1171.75" y="679.75">
                PRESSURE PAD
            </text>
        </g>
        <path d="M 1080 600 L 920 600 L 920 872" fill="none" stroke="#000000"
              stroke-width="8" stroke-miterlimit="10" pointer-events="none"/>
        <ellipse cx="920" cy="880" rx="8" ry="8" fill="#000000" stroke="#000000"
                 stroke-width="8" pointer-events="none"/>
        <path d="M 1320 880 L 1400 880 L 1400 600 L 1320 600" fill="none"
              stroke="#000000" stroke-width="8" stroke-miterlimit="10"
              pointer-events="none"/>
        <path d="M 1560 600 L 1400 600" fill="none" stroke="#000000"
              stroke-width="8" stroke-miterlimit="10" pointer-events="none"/>
    </g>
</svg>