
<svg xmlns="http://www.w3.org/2000/svg"
     xmlns:xlink="http://www.w3.org/1999/xlink" version="1.1" width="328"
     height="291">
    <defs/>
    <g transform=" translate(-296,-115)">
        <rect x="609" y="279" width="2" height="2" fill="#000000" stroke="none"
              pointer-events="none"/>
        <rect x="609" y="219" width="2" height="2" fill="#000000" stroke="none"
              pointer-events="none"/>
        <path d="M 610 258 L 610 279" fill="#000000" stroke="#000000"
              stroke-width="2" stroke-linecap="square" stroke-miterlimit="10"
              pointer-events="none"/>
        <path d="M 610 221 L 610 242" fill="#000000" stroke="#000000"
              stroke-width="2" stroke-linecap="square" stroke-miterlimit="10"
              pointer-events="none"/>
        <path d="M 602 257.17 L 618 257.17 L 610 243.17 Z" fill="#ffffff"
              stroke="#000000" stroke-width="2" stroke-linejoin="round"
              stroke-linecap="square" stroke-miterlimit="10"
              pointer-events="none"/>
        <path d="M 602.08 243.18 L 618.08 243.18" fill="none" stroke="#000000"
              stroke-width="2" stroke-linecap="round" stroke-miterlimit="10"
              pointer-events="none"/>
        <rect x="606" y="216" width="8" height="8" fill="none" stroke="none"
              pointer-events="none"/>
        <rect x="606" y="276" width="8" height="8" fill="none" stroke="none"
              pointer-events="none"/>
        <rect x="587" y="220" width="14" height="13" fill-opacity="0"
              fill="#dae2f2" stroke="#000000" stroke-opacity="0"
              pointer-events="none"/>
        <g fill="#000000" font-family="Arial,Helvetica" font-weight="bold"
           text-anchor="middle" font-size="12px">
            <text x="593.75" y="230.25">
                D1
            </text>
        </g>
        <rect x="319" y="239" width="2" height="2" fill="#000000" stroke="none"
              pointer-events="none"/>
        <rect x="319" y="299" width="2" height="2" fill="#000000" stroke="none"
              pointer-events="none"/>
        <path d="M 302.53 249.56 C 312.53 249.56 312.53 249.56 312.53 249.56"
              fill="none" stroke="#000000" stroke-width="1.5"
              stroke-linecap="round" stroke-miterlimit="10"
              pointer-events="none"/>
        <path d="M 307.53 244.56 C 307.53 254.56 307.53 254.56 307.53 254.56"
              fill="none" stroke="#000000" stroke-width="1.5"
              stroke-linecap="round" stroke-miterlimit="10"
              pointer-events="none"/>
        <path d="M 302 258.53 C 338 258.53 338 258.53 338 258.53" fill="none"
              stroke="#000000" stroke-width="2" stroke-linecap="round"
              stroke-miterlimit="10" pointer-events="none"/>
        <path d="M 311 266 C 329 266 329 266 329 266" fill="none"
              stroke="#000000" stroke-width="2" stroke-linecap="round"
              stroke-miterlimit="10" pointer-events="none"/>
        <path d="M 302 274.53 C 338 274.53 338 274.53 338 274.53" fill="none"
              stroke="#000000" stroke-width="2" stroke-linecap="round"
              stroke-miterlimit="10" pointer-events="none"/>
        <path d="M 311 282 C 329 282 329 282 329 282" fill="none"
              stroke="#000000" stroke-width="2" stroke-linecap="round"
              stroke-miterlimit="10" pointer-events="none"/>
        <path d="M 320 241 L 320 258" fill="none" stroke="#000000"
              stroke-width="2" stroke-linejoin="round" stroke-linecap="square"
              stroke-miterlimit="10" pointer-events="none"/>
        <path d="M 320 282 L 320 299" fill="none" stroke="#000000"
              stroke-width="2" stroke-linejoin="round" stroke-linecap="square"
              stroke-miterlimit="10" pointer-events="none"/>
        <rect x="316" y="236" width="8" height="8" fill="none" stroke="none"
              pointer-events="none"/>
        <rect x="316" y="296" width="8" height="8" fill="none" stroke="none"
              pointer-events="none"/>
        <path d="M 320 240 L 320 120 L 610 120 L 610 220" fill="none"
              stroke="#000000" stroke-width="2" stroke-miterlimit="10"
              pointer-events="none"/>
        <path d="M 610 280 L 610 400 L 320 400 L 320 300" fill="none"
              stroke="#000000" stroke-width="2" stroke-miterlimit="10"
              pointer-events="none"/>
    </g>
</svg>